<?xml version="1.0" encoding="UTF-8" standalone="no"?>
<!-- Created with Inkscape (http://www.inkscape.org/) -->

<svg
   xmlns:dc="http://purl.org/dc/elements/1.1/"
   xmlns:cc="http://creativecommons.org/ns#"
   xmlns:rdf="http://www.w3.org/1999/02/22-rdf-syntax-ns#"
   xmlns:svg="http://www.w3.org/2000/svg"
   xmlns="http://www.w3.org/2000/svg"
   xmlns:sodipodi="http://sodipodi.sourceforge.net/DTD/sodipodi-0.dtd"
   xmlns:inkscape="http://www.inkscape.org/namespaces/inkscape"
   width="200mm"
   height="100mm"
   viewBox="0 0 744.09449 1052.3622"
   id="svg6893"
   version="1.1"
   inkscape:version="0.91 r13725"
   sodipodi:docname="logo.svg">
  <defs
     id="defs6895" />
  <sodipodi:namedview
     id="base"
     pagecolor="#ffffff"
     bordercolor="#666666"
     borderopacity="1.0"
     inkscape:pageopacity="0.0"
     inkscape:pageshadow="2"
     inkscape:zoom="0.95537319"
     inkscape:cx="409.84237"
     inkscape:cy="205.18778"
     inkscape:document-units="px"
     inkscape:current-layer="layer1"
     showgrid="false"
     inkscape:window-width="1863"
     inkscape:window-height="1056"
     inkscape:window-x="57"
     inkscape:window-y="24"
     inkscape:window-maximized="1" />
  <metadata
     id="metadata6898">
    <rdf:RDF>
      <cc:Work
         rdf:about="">
        <dc:format>image/svg+xml</dc:format>
        <dc:type
           rdf:resource="http://purl.org/dc/dcmitype/StillImage" />
        <dc:title></dc:title>
      </cc:Work>
    </rdf:RDF>
  </metadata>
  <g
     inkscape:label="Calque 1"
     inkscape:groupmode="layer"
     id="layer1">
    <g
       id="g1198"
       transform="matrix(5.309804,0,0,5.309804,-1204.7833,-9533.8893)">
      <g
         id="g1200">
        <g
           id="g1202">
          <path
             style="fill:#47739c"
             inkscape:connector-curvature="0"
             id="path1204"
             d="m 174.172,1915.558 0.187,-15.108 -0.124,0 -3.7,15.108 -3.513,0 -3.575,-15.108 -0.094,0 0.156,15.108 -4.508,0 0,-22.01 6.28,0 3.544,14.177 0.125,0 3.45,-14.177 6.652,0 0,22.01 -4.88,0 z" />
          <path
             style="fill:#47739c"
             inkscape:connector-curvature="0"
             id="path1206"
             d="m 192.732,1915.558 -0.901,-4.01 -4.943,0 -0.903,4.01 -4.974,0 5.347,-22.01 6.249,0 5.316,22.01 -5.191,0 z m -3.295,-17.223 -0.125,0 -1.865,9.357 3.762,0 -1.772,-9.357 z" />
          <path
             style="fill:#47739c"
             inkscape:connector-curvature="0"
             id="path1208"
             d="m 209.038,1915.558 -2.943,-8.766 -1.457,0 0,8.766 -4.787,0 0,-22.01 7.041,0 c 2.13,0 3.784,0.556 4.963,1.664 1.178,1.107 1.768,2.762 1.768,4.958 0,0.808 -0.093,1.533 -0.278,2.175 -0.187,0.643 -0.43,1.193 -0.729,1.648 -0.3,0.457 -0.636,0.83 -1.007,1.119 -0.373,0.291 -0.733,0.498 -1.084,0.622 l 3.751,9.823 -5.238,0 z m -0.296,-15.109 c 0,-0.56 -0.078,-1.015 -0.233,-1.367 -0.155,-0.352 -0.357,-0.632 -0.606,-0.841 -0.249,-0.205 -0.524,-0.347 -0.823,-0.418 -0.301,-0.072 -0.597,-0.109 -0.887,-0.109 l -1.554,0 0,5.565 1.461,0 c 0.706,0 1.323,-0.224 1.851,-0.67 0.527,-0.444 0.791,-1.165 0.791,-2.16 z" />
          <path
             style="fill:#47739c"
             inkscape:connector-curvature="0"
             id="path1210"
             d="m 225.777,1898.801 c -0.373,-0.433 -0.808,-0.77 -1.305,-1.009 -0.497,-0.238 -1.016,-0.358 -1.555,-0.358 -0.559,0 -1.062,0.177 -1.507,0.529 -0.446,0.354 -0.668,0.936 -0.668,1.744 0,0.685 0.228,1.22 0.685,1.604 0.455,0.385 1.129,0.805 2.021,1.263 0.5,0.248 1.027,0.544 1.581,0.887 0.552,0.342 1.058,0.762 1.517,1.26 0.459,0.499 0.84,1.096 1.143,1.791 0.303,0.695 0.454,1.521 0.454,2.476 0,1.184 -0.188,2.228 -0.563,3.132 -0.375,0.901 -0.881,1.649 -1.518,2.24 -0.637,0.592 -1.371,1.039 -2.203,1.34 -0.833,0.3 -1.696,0.45 -2.586,0.45 -1.326,0 -2.534,-0.247 -3.623,-0.744 -1.087,-0.499 -1.963,-1.079 -2.626,-1.742 l 2.549,-3.731 c 0.476,0.498 1.026,0.897 1.646,1.197 0.623,0.301 1.255,0.451 1.897,0.451 0.601,0 1.108,-0.197 1.523,-0.591 0.414,-0.393 0.622,-0.942 0.622,-1.647 0,-0.727 -0.249,-1.301 -0.746,-1.725 -0.498,-0.426 -1.223,-0.877 -2.177,-1.353 -0.601,-0.29 -1.167,-0.612 -1.694,-0.964 -0.528,-0.354 -0.996,-0.777 -1.399,-1.275 -0.404,-0.498 -0.72,-1.078 -0.948,-1.74 -0.229,-0.664 -0.342,-1.451 -0.342,-2.363 0,-1.223 0.203,-2.273 0.607,-3.155 0.403,-0.88 0.932,-1.601 1.585,-2.161 0.653,-0.559 1.378,-0.974 2.177,-1.243 0.797,-0.269 1.601,-0.404 2.41,-0.404 1.2,0 2.279,0.196 3.232,0.587 0.953,0.391 1.751,0.928 2.394,1.605 l -2.583,3.649 z" />
          <path
             style="fill:#47739c"
             inkscape:connector-curvature="0"
             id="path1212"
             d="m 231.001,1915.558 0,-22.01 10.632,0 0,4.383 -5.876,0 0,4.322 5.41,0 0,4.104 -5.41,0 0,4.725 6.25,0 0,4.477 -11.006,0 z" />
          <path
             style="fill:#47739c"
             inkscape:connector-curvature="0"
             id="path1214"
             d="m 244.929,1915.558 0,-22.01 5.004,0 0,22.01 -5.004,0 z" />
          <path
             style="fill:#47739c"
             inkscape:connector-curvature="0"
             id="path1216"
             d="m 253.85,1915.558 0,-22.01 5.037,0 0,17.41 5.875,0 0,4.6 -10.912,0 z" />
          <path
             style="fill:#47739c"
             inkscape:connector-curvature="0"
             id="path1218"
             d="m 267,1915.558 0,-22.01 5.036,0 0,17.41 5.876,0 0,4.6 -10.912,0 z" />
          <path
             style="fill:#47739c"
             inkscape:connector-curvature="0"
             id="path1220"
             d="m 280.15,1915.558 0,-22.01 10.632,0 0,4.383 -5.876,0 0,4.322 5.409,0 0,4.104 -5.409,0 0,4.725 6.25,0 0,4.477 -11.006,0 z" />
        </g>
        <g
           id="g1222">
          <path
             style="fill:#f59c00"
             inkscape:connector-curvature="0"
             id="path1224"
             d="m 308.045,1898.801 c -0.373,-0.433 -0.809,-0.77 -1.306,-1.009 -0.496,-0.238 -1.017,-0.358 -1.556,-0.358 -0.558,0 -1.061,0.177 -1.507,0.529 -0.445,0.354 -0.668,0.936 -0.668,1.744 0,0.685 0.227,1.22 0.684,1.604 0.456,0.385 1.13,0.805 2.021,1.263 0.501,0.248 1.028,0.544 1.58,0.887 0.554,0.342 1.06,0.762 1.519,1.26 0.458,0.499 0.841,1.096 1.142,1.791 0.304,0.695 0.455,1.521 0.455,2.476 0,1.184 -0.188,2.228 -0.564,3.132 -0.376,0.901 -0.882,1.649 -1.518,2.24 -0.636,0.592 -1.371,1.039 -2.202,1.34 -0.833,0.3 -1.696,0.45 -2.587,0.45 -1.327,0 -2.533,-0.247 -3.621,-0.744 -1.089,-0.499 -1.964,-1.079 -2.628,-1.742 l 2.549,-3.731 c 0.478,0.498 1.026,0.897 1.648,1.197 0.622,0.301 1.253,0.451 1.896,0.451 0.602,0 1.11,-0.197 1.525,-0.591 0.412,-0.393 0.62,-0.942 0.62,-1.647 0,-0.727 -0.249,-1.301 -0.746,-1.725 -0.497,-0.426 -1.224,-0.877 -2.176,-1.353 -0.601,-0.29 -1.166,-0.612 -1.694,-0.964 -0.528,-0.354 -0.994,-0.777 -1.398,-1.275 -0.405,-0.498 -0.721,-1.078 -0.949,-1.74 -0.229,-0.664 -0.342,-1.451 -0.342,-2.363 0,-1.223 0.203,-2.273 0.606,-3.155 0.402,-0.88 0.933,-1.601 1.586,-2.161 0.651,-0.559 1.378,-0.974 2.175,-1.243 0.798,-0.269 1.603,-0.404 2.41,-0.404 1.202,0 2.281,0.196 3.233,0.587 0.952,0.391 1.752,0.928 2.395,1.605 l -2.582,3.649 z" />
          <path
             style="fill:#f59c00"
             inkscape:connector-curvature="0"
             id="path1226"
             d="m 329.278,1904.491 c 0,1.741 -0.196,3.332 -0.592,4.771 -0.393,1.441 -0.952,2.67 -1.677,3.685 -0.725,1.017 -1.612,1.804 -2.66,2.364 -1.046,0.558 -2.22,0.838 -3.526,0.838 -1.306,0 -2.483,-0.28 -3.528,-0.838 -1.047,-0.561 -1.933,-1.348 -2.659,-2.364 -0.725,-1.015 -1.285,-2.243 -1.679,-3.685 -0.396,-1.438 -0.591,-3.029 -0.591,-4.771 0,-1.742 0.191,-3.32 0.575,-4.742 0.383,-1.418 0.938,-2.631 1.664,-3.637 0.726,-1.004 1.61,-1.782 2.658,-2.331 1.046,-0.549 2.231,-0.824 3.56,-0.824 1.307,0 2.48,0.275 3.526,0.824 1.048,0.549 1.936,1.327 2.66,2.331 0.725,1.006 1.284,2.219 1.677,3.637 0.396,1.422 0.592,3 0.592,4.742 z m -5.098,0 c 0,-0.953 -0.071,-1.839 -0.218,-2.658 -0.144,-0.819 -0.356,-1.528 -0.637,-2.129 -0.28,-0.602 -0.627,-1.074 -1.042,-1.415 -0.414,-0.343 -0.901,-0.513 -1.46,-0.513 -0.56,0 -1.052,0.17 -1.477,0.513 -0.426,0.341 -0.778,0.813 -1.057,1.415 -0.282,0.601 -0.488,1.31 -0.622,2.129 -0.136,0.819 -0.202,1.705 -0.202,2.658 0,0.954 0.066,1.844 0.202,2.673 0.134,0.829 0.34,1.544 0.622,2.146 0.278,0.602 0.631,1.078 1.057,1.431 0.425,0.352 0.917,0.528 1.477,0.528 0.559,0 1.046,-0.177 1.46,-0.528 0.415,-0.353 0.762,-0.829 1.042,-1.431 0.28,-0.602 0.493,-1.316 0.637,-2.146 0.146,-0.829 0.218,-1.719 0.218,-2.673 z" />
          <path
             style="fill:#f59c00"
             inkscape:connector-curvature="0"
             id="path1228"
             d="m 332.294,1915.558 0,-22.01 5.036,0 0,17.41 5.877,0 0,4.6 -10.913,0 z" />
          <path
             style="fill:#f59c00"
             inkscape:connector-curvature="0"
             id="path1230"
             d="m 358.799,1910.833 c -0.281,1.057 -0.722,1.979 -1.321,2.766 -0.603,0.788 -1.379,1.411 -2.333,1.867 -0.953,0.456 -2.103,0.683 -3.451,0.683 -1.347,0 -2.486,-0.227 -3.419,-0.683 -0.933,-0.456 -1.693,-1.079 -2.285,-1.867 -0.59,-0.787 -1.017,-1.709 -1.275,-2.766 -0.258,-1.057 -0.388,-2.197 -0.388,-3.42 l 0,-13.865 5.005,0 0,13.43 c 0,0.622 0.035,1.203 0.109,1.741 0.072,0.54 0.202,0.999 0.389,1.384 0.186,0.383 0.436,0.689 0.746,0.917 0.31,0.228 0.715,0.341 1.213,0.341 0.497,0 0.9,-0.113 1.212,-0.341 0.311,-0.228 0.559,-0.534 0.745,-0.917 0.188,-0.385 0.316,-0.844 0.389,-1.384 0.072,-0.538 0.11,-1.119 0.11,-1.741 l 0,-13.43 4.973,0 0,13.865 c -0.001,1.223 -0.141,2.363 -0.419,3.42 z" />
          <path
             style="fill:#f59c00"
             inkscape:connector-curvature="0"
             id="path1232"
             d="m 369.692,1897.776 0,17.781 -4.88,0 0,-17.781 -4.04,0 0,-4.229 12.962,0 0,4.229 -4.042,0 z" />
          <path
             style="fill:#f59c00"
             inkscape:connector-curvature="0"
             id="path1234"
             d="m 375.663,1915.558 0,-22.01 5.005,0 0,22.01 -5.005,0 z" />
          <path
             style="fill:#f59c00"
             inkscape:connector-curvature="0"
             id="path1236"
             d="m 400.594,1904.491 c 0,1.741 -0.196,3.332 -0.59,4.771 -0.393,1.441 -0.953,2.67 -1.678,3.685 -0.728,1.017 -1.612,1.804 -2.658,2.364 -1.049,0.558 -2.224,0.838 -3.529,0.838 -1.307,0 -2.48,-0.28 -3.527,-0.838 -1.048,-0.561 -1.933,-1.348 -2.659,-2.364 -0.726,-1.015 -1.284,-2.243 -1.68,-3.685 -0.393,-1.438 -0.589,-3.029 -0.589,-4.771 0,-1.742 0.189,-3.32 0.574,-4.742 0.383,-1.418 0.938,-2.631 1.663,-3.637 0.725,-1.004 1.61,-1.782 2.659,-2.331 1.046,-0.549 2.231,-0.824 3.559,-0.824 1.306,0 2.48,0.275 3.529,0.824 1.046,0.549 1.931,1.327 2.658,2.331 0.725,1.006 1.285,2.219 1.678,3.637 0.393,1.422 0.59,3 0.59,4.742 z m -5.098,0 c 0,-0.953 -0.073,-1.839 -0.217,-2.658 -0.146,-0.819 -0.357,-1.528 -0.64,-2.129 -0.277,-0.602 -0.625,-1.074 -1.039,-1.415 -0.416,-0.343 -0.902,-0.513 -1.462,-0.513 -0.56,0 -1.052,0.17 -1.478,0.513 -0.425,0.341 -0.775,0.813 -1.057,1.415 -0.279,0.601 -0.486,1.31 -0.621,2.129 -0.136,0.819 -0.202,1.705 -0.202,2.658 0,0.954 0.066,1.844 0.202,2.673 0.135,0.829 0.342,1.544 0.621,2.146 0.281,0.602 0.632,1.078 1.057,1.431 0.426,0.352 0.918,0.528 1.478,0.528 0.56,0 1.046,-0.177 1.462,-0.528 0.414,-0.353 0.762,-0.829 1.039,-1.431 0.282,-0.602 0.494,-1.316 0.64,-2.146 0.144,-0.829 0.217,-1.719 0.217,-2.673 z" />
          <path
             style="fill:#f59c00"
             inkscape:connector-curvature="0"
             id="path1238"
             d="m 413.122,1915.558 -5.099,-13.398 -0.092,0 0.125,13.398 -4.447,0 0,-22.01 5.472,0 5.067,13.586 0.094,0 -0.094,-13.586 4.29,0 0,22.01 -5.316,0 z" />
          <path
             style="fill:#f59c00"
             inkscape:connector-curvature="0"
             id="path1240"
             d="m 431.465,1898.801 c -0.373,-0.433 -0.809,-0.77 -1.305,-1.009 -0.498,-0.238 -1.018,-0.358 -1.556,-0.358 -0.559,0 -1.062,0.177 -1.508,0.529 -0.444,0.354 -0.668,0.936 -0.668,1.744 0,0.685 0.227,1.22 0.684,1.604 0.456,0.385 1.13,0.805 2.021,1.263 0.501,0.248 1.028,0.544 1.581,0.887 0.553,0.342 1.059,0.762 1.517,1.26 0.46,0.499 0.841,1.096 1.143,1.791 0.303,0.695 0.454,1.521 0.454,2.476 0,1.184 -0.188,2.228 -0.563,3.132 -0.375,0.901 -0.881,1.649 -1.518,2.24 -0.637,0.592 -1.371,1.039 -2.202,1.34 -0.833,0.3 -1.695,0.45 -2.587,0.45 -1.326,0 -2.532,-0.247 -3.621,-0.744 -1.089,-0.499 -1.964,-1.079 -2.628,-1.742 l 2.549,-3.731 c 0.478,0.498 1.028,0.897 1.648,1.197 0.623,0.301 1.254,0.451 1.896,0.451 0.602,0 1.109,-0.197 1.524,-0.591 0.414,-0.393 0.621,-0.942 0.621,-1.647 0,-0.727 -0.248,-1.301 -0.745,-1.725 -0.497,-0.426 -1.224,-0.877 -2.177,-1.353 -0.602,-0.29 -1.165,-0.612 -1.693,-0.964 -0.529,-0.354 -0.995,-0.777 -1.398,-1.275 -0.406,-0.498 -0.722,-1.078 -0.95,-1.74 -0.227,-0.664 -0.341,-1.451 -0.341,-2.363 0,-1.223 0.202,-2.273 0.605,-3.155 0.404,-0.88 0.933,-1.601 1.586,-2.161 0.652,-0.559 1.378,-0.974 2.175,-1.243 0.798,-0.269 1.604,-0.404 2.41,-0.404 1.202,0 2.28,0.196 3.233,0.587 0.953,0.391 1.752,0.928 2.395,1.605 l -2.582,3.649 z" />
        </g>
      </g>
      <g
         id="g1242">
        <g
           id="g1244">
          <path
             style="fill:#f59c00"
             inkscape:connector-curvature="0"
             id="path1246"
             d="m 277.642,1879.2 c -1.074,1.719 -1.8,2.484 -1.8,2.484 7.928,-1.286 12.953,-6.246 10.807,-11.033 -1.414,-3.154 -6.934,-6.832 -14.147,-0.421 0,0 1.333,-0.389 2.256,-0.23 0,0 -3.174,3.312 -11.66,6.587 1.453,0.561 4.312,0.611 4.312,0.611 -2.292,1.805 -6.092,2.436 -7.526,2.615 11.793,2.946 17.758,-0.613 17.758,-0.613 z" />
        </g>
        <g
           id="g1248">
          <path
             style="fill:#47739c"
             inkscape:connector-curvature="0"
             id="path1250"
             d="m 318.065,1852.025 c -3.01,-3.669 -3.2,-8.756 -3.1,-11.12 -3.743,1.321 -7.97,3.424 -12.597,6.679 -2.132,1.502 -4.37,3.442 -6.454,5.419 l -10.833,2.422 3.296,5.433 c -0.782,0.886 -1.233,1.423 -1.233,1.423 l -0.937,1.412 c -0.638,0.958 -0.647,2.201 -0.028,3.174 l 2.584,4.046 c 0.621,0.972 1.753,1.486 2.888,1.316 l 1.678,-0.254 c 0,0 0.621,-0.138 1.678,-0.415 l 3.825,5.529 7.521,-9.413 c 2.224,-0.956 4.514,-2.077 6.676,-3.372 4.803,-2.874 8.459,-5.801 11.245,-8.58 -0.367,-0.082 -0.729,-0.171 -1.075,-0.279 -2.085,-0.655 -3.803,-1.799 -5.134,-3.42 z m -7.593,-6.407 1.754,3.174 c -2.896,1.537 -4.465,0.892 -4.465,0.892 0.339,-1.51 2.711,-4.066 2.711,-4.066 z m -3.913,5.266 1.756,3.172 c -2.896,1.539 -4.466,0.894 -4.466,0.894 0.338,-1.51 2.71,-4.066 2.71,-4.066 z m -6.128,1.385 1.753,3.171 c -2.896,1.542 -4.465,0.894 -4.465,0.894 0.338,-1.509 2.712,-4.065 2.712,-4.065 z m -6.409,9.607 c 0.338,-1.509 2.709,-4.065 2.709,-4.065 l 1.756,3.174 c -2.895,1.539 -4.465,0.891 -4.465,0.891 z m 3.077,4.189 c 0.34,-1.51 2.711,-4.065 2.711,-4.065 l 1.755,3.173 c -2.896,1.539 -4.466,0.892 -4.466,0.892 z m 3.36,-5.634 c 0.339,-1.51 2.711,-4.065 2.711,-4.065 l 1.753,3.175 c -2.893,1.537 -4.464,0.89 -4.464,0.89 z m 3.078,4.189 c 0.339,-1.509 2.712,-4.064 2.712,-4.064 l 1.755,3.173 c -2.896,1.538 -4.467,0.891 -4.467,0.891 z m 3.391,-5.482 c 0.339,-1.508 2.71,-4.064 2.71,-4.064 l 1.755,3.173 c -2.896,1.539 -4.465,0.891 -4.465,0.891 z m 3.572,-5.36 c 0.34,-1.507 2.712,-4.062 2.712,-4.062 l 1.756,3.173 c -2.897,1.54 -4.468,0.889 -4.468,0.889 z m 3.079,4.192 c 0.339,-1.508 2.712,-4.065 2.712,-4.065 l 1.755,3.175 c -2.895,1.536 -4.467,0.89 -4.467,0.89 z" />
          <circle
             style="fill:#47739c"
             id="circle1252"
             r="1.534"
             cy="1844.765"
             cx="321.737" />
          <path
             style="fill:#47739c"
             inkscape:connector-curvature="0"
             id="path1254"
             d="m 333.162,1840.06 c 0,0 -6.398,-2.934 -17.02,0.452 -0.117,1.935 -0.125,7.209 2.815,10.788 1.519,1.848 3.626,2.999 6.275,3.44 7.62,-8.087 7.93,-14.68 7.93,-14.68 z m -12.228,7.267 c -1.413,-0.443 -2.201,-1.953 -1.759,-3.365 0.444,-1.412 1.954,-2.201 3.366,-1.758 1.412,0.443 2.201,1.953 1.758,3.365 -0.443,1.412 -1.953,2.202 -3.365,1.758 z" />
        </g>
      </g>
      <g
         id="g1256">
        <path
           style="fill:#47739c"
           inkscape:connector-curvature="0"
           id="path1258"
           d="m 213.271,1944.907 0,-0.607 c -0.504,0.503 -0.982,0.684 -1.834,0.684 -0.878,0 -1.355,-0.154 -1.795,-0.581 -0.323,-0.31 -0.478,-0.788 -0.478,-1.291 0,-1.123 0.789,-1.834 2.209,-1.834 l 1.898,0 0,-0.606 c 0,-0.917 -0.453,-1.395 -1.628,-1.395 -0.801,0 -1.213,0.207 -1.601,0.735 l -0.633,-0.581 c 0.556,-0.735 1.201,-0.955 2.247,-0.955 1.718,0 2.545,0.749 2.545,2.117 l 0,4.314 -0.93,0 z m 0,-2.931 -1.77,0 c -0.956,0 -1.433,0.374 -1.433,1.122 0,0.736 0.452,1.085 1.472,1.085 0.529,0 0.994,-0.052 1.407,-0.426 0.22,-0.207 0.324,-0.568 0.324,-1.099 l 0,-0.682 z" />
        <path
           style="fill:#47739c"
           inkscape:connector-curvature="0"
           id="path1260"
           d="m 220.215,1944.983 c -1.601,0 -2.815,-1.085 -2.815,-3.254 0,-2.17 1.214,-3.254 2.815,-3.254 0.878,0 1.434,0.23 2.092,0.941 l -0.633,0.595 c -0.478,-0.528 -0.853,-0.711 -1.459,-0.711 -0.62,0 -1.137,0.246 -1.472,0.724 -0.298,0.414 -0.414,0.904 -0.414,1.705 0,0.801 0.116,1.292 0.414,1.705 0.335,0.476 0.852,0.723 1.472,0.723 0.607,0 0.981,-0.195 1.459,-0.723 l 0.633,0.606 c -0.658,0.711 -1.214,0.943 -2.092,0.943 z" />
        <path
           style="fill:#47739c"
           inkscape:connector-curvature="0"
           id="path1262"
           d="m 227.638,1944.983 c -1.601,0 -2.815,-1.085 -2.815,-3.254 0,-2.17 1.214,-3.254 2.815,-3.254 0.879,0 1.434,0.23 2.092,0.941 l -0.633,0.595 c -0.478,-0.528 -0.853,-0.711 -1.459,-0.711 -0.62,0 -1.137,0.246 -1.472,0.724 -0.298,0.414 -0.414,0.904 -0.414,1.705 0,0.801 0.116,1.292 0.414,1.705 0.335,0.476 0.852,0.723 1.472,0.723 0.607,0 0.981,-0.195 1.459,-0.723 l 0.633,0.606 c -0.659,0.711 -1.213,0.943 -2.092,0.943 z" />
        <path
           style="fill:#47739c"
           inkscape:connector-curvature="0"
           id="path1264"
           d="m 233.175,1941.976 c 0,1.395 0.646,2.193 1.872,2.193 0.736,0 1.163,-0.219 1.666,-0.723 l 0.633,0.557 c -0.646,0.645 -1.252,0.98 -2.325,0.98 -1.692,0 -2.777,-1.006 -2.777,-3.254 0,-2.067 0.995,-3.254 2.609,-3.254 1.652,0 2.608,1.176 2.608,3.086 l 0,0.414 -4.286,0 z m 3.164,-1.757 c -0.271,-0.582 -0.801,-0.956 -1.485,-0.956 -0.685,0 -1.215,0.374 -1.485,0.956 -0.155,0.336 -0.168,0.543 -0.194,1.059 l 3.37,0 c -0.039,-0.516 -0.051,-0.723 -0.206,-1.059 z m -1.201,-2.984 -0.892,0 1.175,-1.976 1.072,0 -1.355,1.976 z" />
        <path
           style="fill:#47739c"
           inkscape:connector-curvature="0"
           id="path1266"
           d="m 242.314,1944.907 c -1.111,0 -1.615,-0.725 -1.615,-1.693 l 0,-7.502 0.93,0 0,7.463 c 0,0.62 0.208,0.931 0.852,0.931 l 0.504,0 0,0.802 -0.671,0 z" />
        <path
           style="fill:#47739c"
           inkscape:connector-curvature="0"
           id="path1268"
           d="m 246.263,1941.976 c 0,1.395 0.646,2.193 1.872,2.193 0.737,0 1.163,-0.219 1.667,-0.723 l 0.633,0.557 c -0.646,0.645 -1.252,0.98 -2.324,0.98 -1.692,0 -2.777,-1.006 -2.777,-3.254 0,-2.067 0.996,-3.254 2.609,-3.254 1.653,0 2.608,1.176 2.608,3.086 l 0,0.414 -4.288,0 z m 3.164,-1.757 c -0.271,-0.582 -0.8,-0.956 -1.485,-0.956 -0.684,0 -1.214,0.374 -1.484,0.956 -0.156,0.336 -0.168,0.543 -0.194,1.059 l 3.371,0 c -0.04,-0.516 -0.053,-0.723 -0.208,-1.059 z m -1.2,-2.984 -0.893,0 1.176,-1.976 1.071,0 -1.354,1.976 z" />
        <path
           style="fill:#47739c"
           inkscape:connector-curvature="0"
           id="path1270"
           d="m 257.366,1939.768 c -0.348,-0.351 -0.607,-0.467 -1.097,-0.467 -0.93,0 -1.525,0.737 -1.525,1.705 l 0,3.901 -0.929,0 0,-6.354 0.929,0 0,0.774 c 0.349,-0.529 1.047,-0.852 1.783,-0.852 0.607,0 1.072,0.141 1.524,0.593 l -0.685,0.7 z" />
        <path
           style="fill:#47739c"
           inkscape:connector-curvature="0"
           id="path1272"
           d="m 264.014,1944.907 0,-0.607 c -0.504,0.503 -0.981,0.684 -1.833,0.684 -0.878,0 -1.356,-0.154 -1.796,-0.581 -0.322,-0.31 -0.477,-0.788 -0.477,-1.291 0,-1.123 0.788,-1.834 2.208,-1.834 l 1.898,0 0,-0.606 c 0,-0.917 -0.452,-1.395 -1.628,-1.395 -0.8,0 -1.212,0.207 -1.6,0.735 l -0.633,-0.581 c 0.555,-0.735 1.201,-0.955 2.247,-0.955 1.718,0 2.545,0.749 2.545,2.117 l 0,4.314 -0.931,0 z m 0,-2.931 -1.769,0 c -0.956,0 -1.433,0.374 -1.433,1.122 0,0.736 0.452,1.085 1.472,1.085 0.53,0 0.994,-0.052 1.408,-0.426 0.22,-0.207 0.323,-0.568 0.323,-1.099 l 0,-0.682 z" />
        <path
           style="fill:#47739c"
           inkscape:connector-curvature="0"
           id="path1274"
           d="m 270.273,1944.907 c -1.084,0 -1.627,-0.764 -1.627,-1.705 l 0,-3.939 -0.8,0 0,-0.71 0.8,0 0,-1.951 0.93,0 0,1.951 1.355,0 0,0.71 -1.355,0 0,3.912 c 0,0.582 0.271,0.931 0.865,0.931 l 0.49,0 0,0.802 -0.658,0 z" />
        <path
           style="fill:#47739c"
           inkscape:connector-curvature="0"
           id="path1276"
           d="m 274.584,1941.976 c 0,1.395 0.646,2.193 1.872,2.193 0.736,0 1.163,-0.219 1.667,-0.723 l 0.633,0.557 c -0.646,0.645 -1.252,0.98 -2.324,0.98 -1.692,0 -2.777,-1.006 -2.777,-3.254 0,-2.067 0.995,-3.254 2.608,-3.254 1.653,0 2.609,1.176 2.609,3.086 l 0,0.414 -4.288,0 z m 3.164,-1.757 c -0.271,-0.582 -0.8,-0.956 -1.485,-0.956 -0.684,0 -1.214,0.374 -1.485,0.956 -0.155,0.336 -0.167,0.543 -0.193,1.059 l 3.371,0 c -0.04,-0.516 -0.053,-0.723 -0.208,-1.059 z" />
        <path
           style="fill:#47739c"
           inkscape:connector-curvature="0"
           id="path1278"
           d="m 286.152,1944.907 0,-0.711 c -0.452,0.516 -1.085,0.787 -1.795,0.787 -0.685,0 -1.252,-0.207 -1.641,-0.595 -0.452,-0.438 -0.645,-1.045 -0.645,-1.782 l 0,-4.054 0.929,0 0,3.914 c 0,1.122 0.594,1.69 1.55,1.69 0.956,0 1.588,-0.581 1.588,-1.69 l 0,-3.914 0.93,0 0,6.354 -0.916,0 z" />
        <path
           style="fill:#47739c"
           inkscape:connector-curvature="0"
           id="path1280"
           d="m 294.232,1939.768 c -0.349,-0.351 -0.607,-0.467 -1.098,-0.467 -0.929,0 -1.524,0.737 -1.524,1.705 l 0,3.901 -0.929,0 0,-6.354 0.929,0 0,0.774 c 0.349,-0.529 1.047,-0.852 1.782,-0.852 0.607,0 1.072,0.141 1.525,0.593 l -0.685,0.7 z" />
        <path
           style="fill:#47739c"
           inkscape:connector-curvature="0"
           id="path1282"
           d="m 305.708,1944.907 0,-0.764 c -0.529,0.673 -1.084,0.84 -1.808,0.84 -0.659,0 -1.214,-0.219 -1.55,-0.556 -0.633,-0.645 -0.774,-1.679 -0.774,-2.698 0,-1.019 0.142,-2.067 0.774,-2.699 0.336,-0.335 0.891,-0.555 1.55,-0.555 0.71,0 1.266,0.153 1.795,0.813 l 0,-3.577 0.93,0 0,9.195 -0.917,0 z m -1.601,-5.606 c -1.396,0 -1.603,1.188 -1.603,2.429 0,1.241 0.207,2.428 1.603,2.428 1.381,0 1.588,-1.188 1.588,-2.428 0,-1.24 -0.207,-2.429 -1.588,-2.429 z" />
        <path
           style="fill:#47739c"
           inkscape:connector-curvature="0"
           id="path1284"
           d="m 310.211,1937.816 0,-2.104 1.124,0 0,1.084 -1.124,1.02 z" />
        <path
           style="fill:#47739c"
           inkscape:connector-curvature="0"
           id="path1286"
           d="m 319.004,1944.259 c -0.439,0.453 -1.046,0.725 -1.82,0.725 -0.774,0 -1.383,-0.271 -1.821,-0.725 -0.646,-0.656 -0.774,-1.549 -0.774,-2.529 0,-0.981 0.129,-1.886 0.774,-2.53 0.438,-0.453 1.047,-0.724 1.821,-0.724 0.774,0 1.381,0.271 1.82,0.724 0.646,0.645 0.775,1.549 0.775,2.53 0,0.98 -0.129,1.873 -0.775,2.529 z m -0.658,-4.491 c -0.311,-0.311 -0.71,-0.467 -1.162,-0.467 -0.452,0 -0.84,0.156 -1.149,0.467 -0.464,0.465 -0.517,1.238 -0.517,1.962 0,0.711 0.038,1.484 0.517,1.963 0.31,0.311 0.697,0.465 1.149,0.465 0.452,0 0.852,-0.154 1.162,-0.465 0.465,-0.479 0.504,-1.252 0.504,-1.963 0,-0.724 -0.039,-1.498 -0.504,-1.962 z" />
        <path
           style="fill:#47739c"
           inkscape:connector-curvature="0"
           id="path1288"
           d="m 327.331,1944.428 c -0.337,0.337 -0.892,0.556 -1.55,0.556 -0.698,0 -1.266,-0.167 -1.795,-0.826 l 0,3.591 -0.93,0 0,-9.195 0.93,0 0,0.748 c 0.529,-0.657 1.084,-0.825 1.795,-0.825 0.658,0 1.213,0.22 1.55,0.555 0.632,0.632 0.774,1.68 0.774,2.699 0,1.019 -0.142,2.052 -0.774,2.697 z m -1.743,-5.127 c -1.396,0 -1.602,1.188 -1.602,2.429 0,1.241 0.206,2.428 1.602,2.428 1.381,0 1.588,-1.188 1.588,-2.428 0,-1.24 -0.207,-2.429 -1.588,-2.429 z" />
        <path
           style="fill:#47739c"
           inkscape:connector-curvature="0"
           id="path1290"
           d="m 333.165,1944.907 c -1.086,0 -1.628,-0.764 -1.628,-1.705 l 0,-3.939 -0.8,0 0,-0.71 0.8,0 0,-1.951 0.93,0 0,1.951 1.355,0 0,0.71 -1.355,0 0,3.912 c 0,0.582 0.272,0.931 0.865,0.931 l 0.49,0 0,0.802 -0.657,0 z" />
        <path
           style="fill:#47739c"
           inkscape:connector-curvature="0"
           id="path1292"
           d="m 336.907,1936.744 0,-1.046 1.045,0 0,1.046 -1.045,0 z m 0.051,8.163 0,-6.354 0.93,0 0,6.354 -0.93,0 z" />
        <path
           style="fill:#47739c"
           inkscape:connector-curvature="0"
           id="path1294"
           d="m 349.664,1944.907 0,-3.914 c 0,-1.124 -0.607,-1.692 -1.563,-1.692 -0.929,0 -1.588,0.583 -1.588,1.588 l 0,4.019 -0.93,0 0,-3.914 c 0,-1.124 -0.606,-1.692 -1.562,-1.692 -0.956,0 -1.589,0.583 -1.589,1.692 l 0,3.914 -0.93,0 0,-6.354 0.93,0 0,0.697 c 0.451,-0.517 1.085,-0.774 1.795,-0.774 0.878,0 1.562,0.36 1.951,1.058 0.49,-0.697 1.199,-1.058 2.092,-1.058 0.685,0 1.252,0.22 1.64,0.593 0.451,0.44 0.685,1.034 0.685,1.77 l 0,4.069 -0.931,0 z" />
        <path
           style="fill:#47739c"
           inkscape:connector-curvature="0"
           id="path1296"
           d="m 354.088,1936.744 0,-1.046 1.047,0 0,1.046 -1.047,0 z m 0.052,8.163 0,-6.354 0.93,0 0,6.354 -0.93,0 z" />
        <path
           style="fill:#47739c"
           inkscape:connector-curvature="0"
           id="path1298"
           d="m 360.685,1944.983 c -1.085,0 -1.923,-0.246 -2.608,-0.916 l 0.619,-0.621 c 0.491,0.516 1.189,0.736 1.977,0.736 1.06,0 1.692,-0.374 1.692,-1.123 0,-0.568 -0.311,-0.865 -1.059,-0.93 l -1.046,-0.09 c -1.24,-0.105 -1.899,-0.646 -1.899,-1.706 0,-1.161 0.969,-1.858 2.337,-1.858 0.917,0 1.705,0.22 2.287,0.684 l -0.607,0.608 c -0.452,-0.351 -1.033,-0.505 -1.692,-0.505 -0.93,0 -1.42,0.389 -1.42,1.046 0,0.568 0.349,0.853 1.137,0.929 l 0.994,0.091 c 1.111,0.104 1.873,0.518 1.873,1.719 -10e-4,1.226 -1.035,1.936 -2.585,1.936 z" />
        <path
           style="fill:#47739c"
           inkscape:connector-curvature="0"
           id="path1300"
           d="m 374.538,1944.907 0,-3.914 c 0,-1.124 -0.606,-1.692 -1.562,-1.692 -0.93,0 -1.589,0.583 -1.589,1.588 l 0,4.019 -0.929,0 0,-3.914 c 0,-1.124 -0.607,-1.692 -1.562,-1.692 -0.956,0 -1.589,0.583 -1.589,1.692 l 0,3.914 -0.93,0 0,-6.354 0.93,0 0,0.697 c 0.451,-0.517 1.085,-0.774 1.795,-0.774 0.878,0 1.562,0.36 1.95,1.058 0.49,-0.697 1.2,-1.058 2.091,-1.058 0.686,0 1.253,0.22 1.642,0.593 0.452,0.44 0.684,1.034 0.684,1.77 l 0,4.069 -0.931,0 z" />
        <path
           style="fill:#47739c"
           inkscape:connector-curvature="0"
           id="path1302"
           d="m 379.595,1941.976 c 0,1.395 0.646,2.193 1.873,2.193 0.736,0 1.163,-0.219 1.665,-0.723 l 0.634,0.557 c -0.646,0.645 -1.253,0.98 -2.324,0.98 -1.692,0 -2.776,-1.006 -2.776,-3.254 0,-2.067 0.994,-3.254 2.607,-3.254 1.654,0 2.608,1.176 2.608,3.086 l 0,0.414 -4.287,0 z m 3.164,-1.757 c -0.271,-0.582 -0.8,-0.956 -1.485,-0.956 -0.684,0 -1.214,0.374 -1.484,0.956 -0.154,0.336 -0.167,0.543 -0.194,1.059 l 3.371,0 c -0.039,-0.516 -0.053,-0.723 -0.208,-1.059 z" />
      </g>
    </g>
  </g>
</svg>
