<?xml version="1.0" encoding="UTF-8" standalone="no"?>
<!-- Created with Inkscape (http://www.inkscape.org/) -->

<svg
   xmlns:dc="http://purl.org/dc/elements/1.1/"
   xmlns:cc="http://creativecommons.org/ns#"
   xmlns:rdf="http://www.w3.org/1999/02/22-rdf-syntax-ns#"
   xmlns:svg="http://www.w3.org/2000/svg"
   xmlns="http://www.w3.org/2000/svg"
   xmlns:sodipodi="http://sodipodi.sourceforge.net/DTD/sodipodi-0.dtd"
   xmlns:inkscape="http://www.inkscape.org/namespaces/inkscape"
   width="200mm"
   height="200mm"
   viewBox="0 0 744.09449 1052.3622"
   id="svg2"
   version="1.1"
   inkscape:version="0.91 r13725"
   sodipodi:docname="plussolution.svg">
  <defs
     id="defs4" />
  <sodipodi:namedview
     id="base"
     pagecolor="#ffffff"
     bordercolor="#666666"
     borderopacity="1.0"
     inkscape:pageopacity="0.0"
     inkscape:pageshadow="2"
     inkscape:zoom="0.49497475"
     inkscape:cx="32.953129"
     inkscape:cy="408.2248"
     inkscape:document-units="px"
     inkscape:current-layer="text4138"
     showgrid="false"
     showguides="true"
     inkscape:guide-bbox="true"
     inkscape:window-width="1863"
     inkscape:window-height="1056"
     inkscape:window-x="57"
     inkscape:window-y="24"
     inkscape:window-maximized="1" />
  <metadata
     id="metadata7">
    <rdf:RDF>
      <cc:Work
         rdf:about="">
        <dc:format>image/svg+xml</dc:format>
        <dc:type
           rdf:resource="http://purl.org/dc/dcmitype/StillImage" />
        <dc:title />
      </cc:Work>
    </rdf:RDF>
  </metadata>
  <g
     inkscape:label="Calque 1"
     inkscape:groupmode="layer"
     id="layer1">
    <rect
       style="fill:#000000;fill-opacity:1;stroke:#000000;stroke-width:4.45499992;stroke-miterlimit:4;stroke-dasharray:none;stroke-opacity:1"
       id="rect4136"
       width="1077.0549"
       height="1086.0554"
       x="-169.13455"
       y="-12.692103" />
    <g
       style="font-style:normal;font-weight:normal;font-size:59.39999771px;line-height:125%;font-family:sans-serif;letter-spacing:0px;word-spacing:0px;fill:#000000;fill-opacity:1;stroke:none;stroke-width:1px;stroke-linecap:butt;stroke-linejoin:miter;stroke-opacity:1"
       id="text4138">
      <path
         d="m 195.00797,788.05809 -3.3858,0 -11.88,36.6498 -11.88,-36.6498 -3.3858,0 13.8996,42.2928 2.7324,0 13.8996,-42.2928 z"
         style="font-style:normal;font-variant:normal;font-weight:normal;font-stretch:normal;font-family:DINOT;-inkscape-font-specification:DINOT;fill:#ffffff;fill-opacity:1"
         id="path4152" />
      <path
         d="m 220.38012,816.03549 c 0,-4.0986 -0.5346,-8.4942 -3.564,-11.5236 -2.079,-2.079 -4.752,-3.1482 -7.9596,-3.1482 -3.2076,0 -5.8806,1.0692 -7.9596,3.1482 -3.0294,3.0294 -3.564,7.425 -3.564,11.5236 0,4.0986 0.5346,8.4942 3.564,11.5236 2.079,2.079 4.752,3.1482 7.9596,3.1482 3.2076,0 5.8806,-1.0692 7.9596,-3.1482 3.0294,-3.0294 3.564,-7.425 3.564,-11.5236 z m -3.0294,0 c 0,3.3264 -0.1782,7.1874 -2.5542,9.5634 -1.6038,1.6038 -3.6234,2.4354 -5.94,2.4354 -2.3166,0 -4.3362,-0.8316 -5.94,-2.4354 -2.376,-2.376 -2.5542,-6.237 -2.5542,-9.5634 0,-3.3264 0.1782,-7.1874 2.5542,-9.5634 1.6038,-1.6038 3.6234,-2.4354 5.94,-2.4354 2.3166,0 4.3362,0.8316 5.94,2.4354 2.376,2.376 2.5542,6.237 2.5542,9.5634 z"
         style="font-style:normal;font-variant:normal;font-weight:normal;font-stretch:normal;font-family:DINOT;-inkscape-font-specification:DINOT;fill:#ffffff;fill-opacity:1"
         id="path4154" />
      <path
         d="m 233.23372,830.35089 0,-28.6308 -3.0294,0 0,28.6308 3.0294,0 z m 0.3564,-38.5506 0,-3.7422 -3.7422,0 0,3.7422 3.7422,0 z"
         style="font-style:normal;font-variant:normal;font-weight:normal;font-stretch:normal;font-family:DINOT;-inkscape-font-specification:DINOT;fill:#ffffff;fill-opacity:1"
         id="path4156" />
      <path
         d="m 260.80367,806.29389 2.1978,-2.1978 c -2.079,-2.079 -4.0986,-2.7324 -6.8904,-2.7324 -3.3858,0 -6.7122,1.485 -8.3754,4.158 l 0,-3.8016 -3.0294,0 0,28.6308 3.0294,0 0,-17.6418 c 0,-4.5738 2.7324,-8.6724 7.6626,-8.6724 2.376,0 3.6828,0.5346 5.4054,2.2572 z"
         style="font-style:normal;font-variant:normal;font-weight:normal;font-stretch:normal;font-family:DINOT;-inkscape-font-specification:DINOT;fill:#ffffff;fill-opacity:1"
         id="path4158" />
      <path
         d="m 293.53679,830.35089 0,-2.673 -2.079,0 c -3.3858,0 -4.3956,-1.5444 -4.3956,-4.8114 l 0,-34.8084 -3.0294,0 0,34.8678 c 0,4.5144 2.1978,7.425 6.8904,7.425 l 2.6136,0 z"
         style="font-style:normal;font-variant:normal;font-weight:normal;font-stretch:normal;font-family:DINOT;-inkscape-font-specification:DINOT;fill:#ffffff;fill-opacity:1"
         id="path4160" />
      <path
         d="m 321.04548,830.35089 0,-19.602 c 0,-5.9994 -3.5046,-9.3852 -11.1078,-9.3852 -4.6926,0 -7.6626,1.0098 -10.098,4.3956 l 2.1978,1.9008 c 1.8414,-2.6136 3.861,-3.6234 7.9002,-3.6234 5.8806,0 8.0784,2.4354 8.0784,7.0092 l 0,3.2076 -9.2664,0 c -6.237,0 -9.9792,3.0294 -9.9792,8.2566 0,2.1384 0.7128,4.2174 2.079,5.5836 1.8414,1.9008 4.158,2.6136 8.4348,2.6136 4.0392,0 6.2964,-0.7722 8.7318,-3.2076 l 0,2.8512 3.0294,0 z m -3.0294,-9.9792 c 0,2.6136 -0.5346,4.455 -1.6038,5.4648 -2.079,1.9602 -4.5144,2.1978 -7.128,2.1978 -5.2272,0 -7.4844,-1.782 -7.4844,-5.5836 0,-3.861 2.4354,-5.7618 7.3062,-5.7618 l 8.91,0 0,3.6828 z"
         style="font-style:normal;font-variant:normal;font-weight:normal;font-stretch:normal;font-family:DINOT;-inkscape-font-specification:DINOT;fill:#ffffff;fill-opacity:1"
         id="path4162" />
      <path
         d="m 367.75151,822.21309 c 0,-5.5836 -3.6234,-7.0092 -8.3754,-7.4844 l -4.6332,-0.4158 c -4.0392,-0.4158 -5.8212,-1.782 -5.8212,-4.8114 0,-3.564 2.5542,-5.5242 7.3062,-5.5242 3.1482,0 5.8212,0.8316 8.019,2.4354 l 2.0196,-2.0196 c -2.5542,-1.9008 -6.0588,-3.0294 -10.0386,-3.0294 -6.237,0 -10.2762,3.1482 -10.2762,8.1378 0,4.5144 2.8512,7.0092 8.613,7.4844 l 4.752,0.4158 c 3.8016,0.3564 5.4648,1.782 5.4648,4.8114 0,3.861 -2.97,5.8212 -8.613,5.8212 -4.0392,0 -7.1874,-1.188 -9.3852,-3.5046 l -2.079,2.079 c 2.9106,2.7918 6.5934,4.0986 11.583,4.0986 7.0686,0 11.4642,-3.267 11.4642,-8.4942 z"
         style="font-style:normal;font-variant:normal;font-weight:normal;font-stretch:normal;font-family:DINOT;-inkscape-font-specification:DINOT;fill:#ffffff;fill-opacity:1"
         id="path4164" />
      <path
         d="m 398.23207,816.03549 c 0,-4.0986 -0.5346,-8.4942 -3.564,-11.5236 -2.079,-2.079 -4.752,-3.1482 -7.9596,-3.1482 -3.2076,0 -5.8806,1.0692 -7.9596,3.1482 -3.0294,3.0294 -3.564,7.425 -3.564,11.5236 0,4.0986 0.5346,8.4942 3.564,11.5236 2.079,2.079 4.752,3.1482 7.9596,3.1482 3.2076,0 5.8806,-1.0692 7.9596,-3.1482 3.0294,-3.0294 3.564,-7.425 3.564,-11.5236 z m -3.0294,0 c 0,3.3264 -0.1782,7.1874 -2.5542,9.5634 -1.6038,1.6038 -3.6234,2.4354 -5.94,2.4354 -2.3166,0 -4.3362,-0.8316 -5.94,-2.4354 -2.376,-2.376 -2.5542,-6.237 -2.5542,-9.5634 0,-3.3264 0.1782,-7.1874 2.5542,-9.5634 1.6038,-1.6038 3.6234,-2.4354 5.94,-2.4354 2.3166,0 4.3362,0.8316 5.94,2.4354 2.376,2.376 2.5542,6.237 2.5542,9.5634 z"
         style="font-style:normal;font-variant:normal;font-weight:normal;font-stretch:normal;font-family:DINOT;-inkscape-font-specification:DINOT;fill:#ffffff;fill-opacity:1"
         id="path4166" />
      <path
         d="m 417.44146,830.35089 0,-2.673 -2.079,0 c -3.3858,0 -4.3956,-1.5444 -4.3956,-4.8114 l 0,-34.8084 -3.0294,0 0,34.8678 c 0,4.5144 2.1978,7.425 6.8904,7.425 l 2.6136,0 z"
         style="font-style:normal;font-variant:normal;font-weight:normal;font-stretch:normal;font-family:DINOT;-inkscape-font-specification:DINOT;fill:#ffffff;fill-opacity:1"
         id="path4168" />
      <path
         d="m 446.79157,830.35089 0,-28.6308 -3.0294,0 0,17.7606 c 0,5.4648 -2.9106,8.5536 -8.0784,8.5536 -5.1678,0 -7.9002,-3.0294 -7.9002,-8.5536 l 0,-17.7606 -3.0294,0 0,18.2952 c 0,3.3858 1.0098,6.0588 2.97,7.9596 1.9008,1.8414 4.455,2.7324 7.6032,2.7324 3.5046,0 6.2964,-1.2474 8.4348,-3.7422 l 0,3.3858 3.0294,0 z"
         style="font-style:normal;font-variant:normal;font-weight:normal;font-stretch:normal;font-family:DINOT;-inkscape-font-specification:DINOT;fill:#ffffff;fill-opacity:1"
         id="path4170" />
      <path
         d="m 468.50782,830.35089 0,-2.673 -2.079,0 c -3.0294,0 -4.3956,-1.7226 -4.3956,-4.752 l 0,-18.9486 6.4746,0 0,-2.2572 -6.4746,0 0,-9.1476 -3.0294,0 0,9.1476 -3.9204,0 0,2.2572 3.9204,0 0,18.8892 c 0,4.3362 2.376,7.4844 6.8904,7.4844 l 2.6136,0 z"
         style="font-style:normal;font-variant:normal;font-weight:normal;font-stretch:normal;font-family:DINOT;-inkscape-font-specification:DINOT;fill:#ffffff;fill-opacity:1"
         id="path4172" />
      <path
         d="m 480.57903,830.35089 0,-28.6308 -3.0294,0 0,28.6308 3.0294,0 z m 0.3564,-38.5506 0,-3.7422 -3.7422,0 0,3.7422 3.7422,0 z"
         style="font-style:normal;font-variant:normal;font-weight:normal;font-stretch:normal;font-family:DINOT;-inkscape-font-specification:DINOT;fill:#ffffff;fill-opacity:1"
         id="path4174" />
      <path
         d="m 513.43558,816.03549 c 0,-4.0986 -0.5346,-8.4942 -3.564,-11.5236 -2.079,-2.079 -4.752,-3.1482 -7.9596,-3.1482 -3.2076,0 -5.8806,1.0692 -7.9596,3.1482 -3.0294,3.0294 -3.564,7.425 -3.564,11.5236 0,4.0986 0.5346,8.4942 3.564,11.5236 2.079,2.079 4.752,3.1482 7.9596,3.1482 3.2076,0 5.8806,-1.0692 7.9596,-3.1482 3.0294,-3.0294 3.564,-7.425 3.564,-11.5236 z m -3.0294,0 c 0,3.3264 -0.1782,7.1874 -2.5542,9.5634 -1.6038,1.6038 -3.6234,2.4354 -5.94,2.4354 -2.3166,0 -4.3362,-0.8316 -5.94,-2.4354 -2.376,-2.376 -2.5542,-6.237 -2.5542,-9.5634 0,-3.3264 0.1782,-7.1874 2.5542,-9.5634 1.6038,-1.6038 3.6234,-2.4354 5.94,-2.4354 2.3166,0 4.3362,0.8316 5.94,2.4354 2.376,2.376 2.5542,6.237 2.5542,9.5634 z"
         style="font-style:normal;font-variant:normal;font-weight:normal;font-stretch:normal;font-family:DINOT;-inkscape-font-specification:DINOT;fill:#ffffff;fill-opacity:1"
         id="path4176" />
      <path
         d="m 545.29717,830.35089 0,-18.2952 c 0,-3.3858 -1.0098,-6.0588 -2.97,-7.9596 -1.9008,-1.8414 -4.455,-2.7324 -7.6032,-2.7324 -3.5046,0 -6.2964,1.2474 -8.4348,3.7422 l 0,-3.3858 -3.0294,0 0,28.6308 3.0294,0 0,-17.7606 c 0,-5.4648 2.9106,-8.5536 8.0784,-8.5536 5.1678,0 7.9002,3.0294 7.9002,8.5536 l 0,17.7606 3.0294,0 z"
         style="font-style:normal;font-variant:normal;font-weight:normal;font-stretch:normal;font-family:DINOT;-inkscape-font-specification:DINOT;fill:#ffffff;fill-opacity:1"
         id="path4178" />
      <path
         d="m 560.71705,830.35089 0,-4.3956 -4.3956,0 0,4.3956 4.3956,0 z"
         style="font-style:normal;font-variant:normal;font-weight:normal;font-stretch:normal;font-family:DINOT;-inkscape-font-specification:DINOT;fill:#ffffff;fill-opacity:1"
         id="path4180" />
      <path
         d="m 576.37916,830.35089 0,-4.3956 -4.3956,0 0,4.3956 4.3956,0 z"
         style="font-style:normal;font-variant:normal;font-weight:normal;font-stretch:normal;font-family:DINOT;-inkscape-font-specification:DINOT;fill:#ffffff;fill-opacity:1"
         id="path4182" />
      <path
         d="m 592.04127,830.35089 0,-4.3956 -4.3956,0 0,4.3956 4.3956,0 z"
         style="font-style:normal;font-variant:normal;font-weight:normal;font-stretch:normal;font-family:DINOT;-inkscape-font-specification:DINOT;fill:#ffffff;fill-opacity:1"
         id="path4184" />
    </g>
    <circle
       style="fill:none;fill-opacity:1;stroke:#ffffff;stroke-width:2.96999979;stroke-miterlimit:4;stroke-dasharray:none;stroke-opacity:1"
       id="path4140"
       cx="357.39224"
       cy="327.82523"
       r="201.85297" />
    <path
       style="fill:none;fill-rule:evenodd;stroke:#ffffff;stroke-width:7.42499971;stroke-linecap:butt;stroke-linejoin:miter;stroke-miterlimit:4;stroke-dasharray:none;stroke-opacity:1"
       d="m 359.19497,156.13723 0,343.42404"
       id="path4142"
       inkscape:connector-curvature="0" />
    <path
       style="fill:none;fill-rule:evenodd;stroke:#ffffff;stroke-width:7.42499971;stroke-linecap:butt;stroke-linejoin:miter;stroke-miterlimit:4;stroke-dasharray:none;stroke-opacity:1"
       d="m 186.59355,325.08519 343.42403,0"
       id="path4142-0"
       inkscape:connector-curvature="0" />
  </g>
</svg>
