<?xml version="1.0" encoding="UTF-8" standalone="no"?>
<!-- Created with Inkscape (http://www.inkscape.org/) -->

<svg
   xmlns:dc="http://purl.org/dc/elements/1.1/"
   xmlns:cc="http://creativecommons.org/ns#"
   xmlns:rdf="http://www.w3.org/1999/02/22-rdf-syntax-ns#"
   xmlns:svg="http://www.w3.org/2000/svg"
   xmlns="http://www.w3.org/2000/svg"
   xmlns:sodipodi="http://sodipodi.sourceforge.net/DTD/sodipodi-0.dtd"
   xmlns:inkscape="http://www.inkscape.org/namespaces/inkscape"
   width="200mm"
   height="200mm"
   viewBox="0 0 744.09449 1052.3622"
   id="svg2"
   version="1.1"
   inkscape:version="0.91 r13725"
   sodipodi:docname="plusbleu.svg">
  <defs
     id="defs4" />
  <sodipodi:namedview
     id="base"
     pagecolor="#ffffff"
     bordercolor="#666666"
     borderopacity="1.0"
     inkscape:pageopacity="0.0"
     inkscape:pageshadow="2"
     inkscape:zoom="0.49497475"
     inkscape:cx="347.5713"
     inkscape:cy="327.4126"
     inkscape:document-units="px"
     inkscape:current-layer="layer1"
     showgrid="false"
     showguides="true"
     inkscape:guide-bbox="true"
     inkscape:window-width="1863"
     inkscape:window-height="1056"
     inkscape:window-x="57"
     inkscape:window-y="24"
     inkscape:window-maximized="1" />
  <metadata
     id="metadata7">
    <rdf:RDF>
      <cc:Work
         rdf:about="">
        <dc:format>image/svg+xml</dc:format>
        <dc:type
           rdf:resource="http://purl.org/dc/dcmitype/StillImage" />
        <dc:title></dc:title>
      </cc:Work>
    </rdf:RDF>
  </metadata>
  <g
     inkscape:label="Calque 1"
     inkscape:groupmode="layer"
     id="layer1">
    <rect
       style="fill:#e7dbb8;fill-opacity:1;stroke:#000000;stroke-width:4.45499992;stroke-miterlimit:4;stroke-dasharray:none;stroke-opacity:1"
       id="rect4136"
       width="1077.0549"
       height="1086.0554"
       x="-166.13435"
       y="-9.6919451" />
    <g
       id="layer1-8"
       inkscape:label="Calque 1"
       transform="matrix(-0.35355339,0.35355339,-0.35355339,-0.35355339,677.39179,404.39205)">
      <circle
         clip-path="none"
         r="524.28027"
         cy="526.88672"
         cx="373.96588"
         id="path4142"
         style="fill:#3f6e96;fill-opacity:1;stroke:#ece1c8;stroke-width:3.27675176;stroke-opacity:1" />
      <path
         inkscape:connector-curvature="0"
         id="path3340"
         d="M 605.6672,156.16456 744.688,295.18536 512.98669,526.88667 744.68802,758.588 605.66722,897.6088 373.96589,665.90747 142.26456,897.6088 3.2437616,758.588 234.94509,526.88667 3.2437701,295.18535 142.26457,156.16455 373.96589,387.86587 Z"
         style="fill:#ffffff;fill-opacity:1;fill-rule:evenodd;stroke:none;stroke-width:1px;stroke-linecap:butt;stroke-linejoin:miter;stroke-opacity:1" />
    </g>
    <text
       xml:space="preserve"
       style="font-style:normal;font-weight:normal;font-size:59.39999771px;line-height:125%;font-family:sans-serif;letter-spacing:0px;word-spacing:0px;fill:#000000;fill-opacity:1;stroke:none;stroke-width:1px;stroke-linecap:butt;stroke-linejoin:miter;stroke-opacity:1"
       x="283.88846"
       y="857.35223"
       id="text4214"
       sodipodi:linespacing="125%"><tspan
         sodipodi:role="line"
         id="tspan4216"
         x="283.88846"
         y="857.35223"
         style="font-style:normal;font-variant:normal;font-weight:normal;font-stretch:normal;font-family:'dinot bold';-inkscape-font-specification:'dinot bold, '" /></text>
    <g
       style="font-style:normal;font-weight:normal;font-size:49.11442184px;line-height:125%;font-family:sans-serif;letter-spacing:0px;word-spacing:0px;fill:#4f4c4c;fill-opacity:1;stroke:none;stroke-width:1px;stroke-linecap:butt;stroke-linejoin:miter;stroke-opacity:1"
       id="text4218"
       transform="translate(-27.001376,-3.0001529)">
      <path
         d="m 148.67127,861.28406 0,-9.13528 -24.31164,0 0,-12.74519 20.70173,0 0,-9.13529 -20.70173,0 0,-12.30316 24.31164,0 0,-9.13528 -34.55199,0 0,52.4542 34.55199,0 z"
         style="font-style:normal;font-variant:normal;font-weight:bold;font-stretch:normal;font-size:73.67162323px;font-family:DINOT;-inkscape-font-specification:'DINOT Bold'"
         id="path4223"
         inkscape:connector-curvature="0" />
      <path
         d="m 198.87618,861.28406 0,-52.4542 -10.24036,0 0,32.12083 -20.7754,-32.12083 -9.13528,0 0,52.4542 10.24036,0 0,-32.1945 20.7754,32.1945 9.13528,0 z"
         style="font-style:normal;font-variant:normal;font-weight:bold;font-stretch:normal;font-size:73.67162323px;font-family:DINOT;-inkscape-font-specification:'DINOT Bold'"
         id="path4225"
         inkscape:connector-curvature="0" />
      <path
         d="m 262.11291,845.81302 c 0,-4.71499 -1.25242,-8.47224 -4.05194,-11.05075 -2.28382,-2.21015 -5.23069,-3.46256 -10.01934,-4.12561 l -6.26209,-0.95773 c -2.21015,-0.29469 -3.75725,-1.0314 -4.78866,-1.98913 -1.10507,-1.03141 -1.47343,-2.35749 -1.47343,-3.75726 0,-3.6099 2.57851,-6.63044 8.03021,-6.63044 3.46256,0 7.5145,0.44203 10.75605,3.60991 l 6.48311,-6.40943 c -4.49397,-4.34663 -9.72466,-6.11475 -16.94448,-6.11475 -11.34543,0 -18.27056,6.55678 -18.27056,15.91307 0,4.4203 1.25242,7.88287 3.75725,10.31403 2.3575,2.28382 5.52538,3.68358 10.16669,4.34663 l 6.26209,0.95773 c 2.65217,0.36835 3.68358,0.81038 4.71498,1.76812 1.10507,1.10507 1.62078,2.5785 1.62078,4.34662 0,4.19928 -3.24156,6.55678 -9.3563,6.55678 -4.78866,0 -9.28263,-1.10508 -12.59785,-4.4203 l -6.63044,6.63044 c 5.15701,5.23069 11.19808,6.92514 19.15462,6.92514 11.05074,0 19.44931,-5.74639 19.44931,-15.91307 z"
         style="font-style:normal;font-variant:normal;font-weight:bold;font-stretch:normal;font-size:73.67162323px;font-family:DINOT;-inkscape-font-specification:'DINOT Bold'"
         id="path4227"
         inkscape:connector-curvature="0" />
      <path
         d="m 312.34199,861.28406 -19.15462,-52.4542 -8.03021,0 -19.08095,52.4542 10.68239,0 3.16788,-9.28263 18.63892,0 3.09421,9.28263 10.68238,0 z m -16.50244,-17.90221 -13.03988,0 6.63045,-19.08095 6.40943,19.08095 z"
         style="font-style:normal;font-variant:normal;font-weight:bold;font-stretch:normal;font-size:73.67162323px;font-family:DINOT;-inkscape-font-specification:'DINOT Bold'"
         id="path4229"
         inkscape:connector-curvature="0" />
      <path
         d="m 352.46425,808.82986 -10.68239,0 -10.53504,34.18364 -10.53504,-34.18364 -10.60872,0 17.31284,52.4542 7.66184,0 17.38651,-52.4542 z"
         style="font-style:normal;font-variant:normal;font-weight:bold;font-stretch:normal;font-size:73.67162323px;font-family:DINOT;-inkscape-font-specification:'DINOT Bold'"
         id="path4231"
         inkscape:connector-curvature="0" />
      <path
         d="m 394.99579,835.05696 c 0,-10.01934 -0.14735,-15.91307 -5.37803,-21.14376 -3.53624,-3.53623 -7.95654,-5.52537 -13.99761,-5.52537 -6.04107,0 -10.53504,1.98914 -14.07128,5.52537 -5.23068,5.23069 -5.30436,11.12442 -5.30436,21.14376 0,10.01934 0.0737,15.91307 5.30436,21.14376 3.53624,3.53623 8.03021,5.52537 14.07128,5.52537 6.04107,0 10.46137,-1.98914 13.99761,-5.52537 5.23068,-5.23069 5.37803,-11.12442 5.37803,-21.14376 z m -10.24036,0 c 0,10.01934 -0.66304,12.4505 -2.5785,14.66065 -1.47344,1.69445 -3.75726,2.8732 -6.55678,2.8732 -2.79952,0 -5.08334,-1.17875 -6.63045,-2.8732 -1.91546,-2.21015 -2.50483,-4.64131 -2.50483,-14.66065 0,-10.01934 0.58937,-12.52418 2.50483,-14.73432 1.54711,-1.69445 3.83093,-2.79953 6.63045,-2.79953 2.79952,0 5.08334,1.10508 6.55678,2.79953 1.91546,2.21014 2.5785,4.71498 2.5785,14.73432 z"
         style="font-style:normal;font-variant:normal;font-weight:bold;font-stretch:normal;font-size:73.67162323px;font-family:DINOT;-inkscape-font-specification:'DINOT Bold'"
         id="path4233"
         inkscape:connector-curvature="0" />
      <path
         d="m 415.73665,861.28406 0,-52.4542 -10.24036,0 0,52.4542 10.24036,0 z"
         style="font-style:normal;font-variant:normal;font-weight:bold;font-stretch:normal;font-size:73.67162323px;font-family:DINOT;-inkscape-font-specification:'DINOT Bold'"
         id="path4235"
         inkscape:connector-curvature="0" />
      <path
         d="m 467.65213,861.28406 -11.71378,-22.61719 c 5.08334,-1.84179 9.57731,-6.40943 9.57731,-13.77659 0,-8.76693 -6.33576,-16.06042 -17.01815,-16.06042 l -20.55438,0 0,52.4542 10.24035,0 0,-20.92274 7.36717,0 10.24035,20.92274 11.86113,0 z M 455.2753,824.89028 c 0,4.05194 -2.94686,6.92513 -7.44083,6.92513 l -9.65099,0 0,-13.85027 9.65099,0 c 4.49397,0 7.44083,2.8732 7.44083,6.92514 z"
         style="font-style:normal;font-variant:normal;font-weight:bold;font-stretch:normal;font-size:73.67162323px;font-family:DINOT;-inkscape-font-specification:'DINOT Bold'"
         id="path4237"
         inkscape:connector-curvature="0" />
      <path
         d="m 530.91532,825.18496 c 0,-8.91426 -6.40943,-16.3551 -17.31283,-16.3551 l -20.33337,0 0,52.4542 10.24035,0 0,-19.744 10.09302,0 c 10.9034,0 17.31283,-7.44083 17.31283,-16.3551 z m -10.24036,0 c 0,4.27296 -2.94686,7.14615 -7.58818,7.14615 l -9.57731,0 0,-14.36597 9.57731,0 c 4.64132,0 7.58818,2.94687 7.58818,7.21982 z"
         style="font-style:normal;font-variant:normal;font-weight:bold;font-stretch:normal;font-size:73.67162323px;font-family:DINOT;-inkscape-font-specification:'DINOT Bold'"
         id="path4239"
         inkscape:connector-curvature="0" />
      <path
         d="m 573.63796,861.28406 0,-9.13528 -23.79594,0 0,-43.31892 -10.24035,0 0,52.4542 34.03629,0 z"
         style="font-style:normal;font-variant:normal;font-weight:bold;font-stretch:normal;font-size:73.67162323px;font-family:DINOT;-inkscape-font-specification:'DINOT Bold'"
         id="path4241"
         inkscape:connector-curvature="0" />
      <path
         d="m 617.10883,843.30818 0,-34.47832 -10.16668,0 0,34.10996 c 0,6.04108 -3.60991,9.65099 -9.13528,9.65099 -5.52537,0 -9.06161,-3.60991 -9.06161,-9.65099 l 0,-34.10996 -10.24036,0 0,34.47832 c 0,11.12442 8.54591,18.41791 19.30197,18.41791 10.75606,0 19.30196,-7.29349 19.30196,-18.41791 z"
         style="font-style:normal;font-variant:normal;font-weight:bold;font-stretch:normal;font-size:73.67162323px;font-family:DINOT;-inkscape-font-specification:'DINOT Bold'"
         id="path4243"
         inkscape:connector-curvature="0" />
      <path
         d="m 662.4146,845.81302 c 0,-4.71499 -1.25242,-8.47224 -4.05194,-11.05075 -2.28382,-2.21015 -5.23069,-3.46256 -10.01934,-4.12561 l -6.26209,-0.95773 c -2.21015,-0.29469 -3.75726,-1.0314 -4.78866,-1.98913 -1.10507,-1.03141 -1.47343,-2.35749 -1.47343,-3.75726 0,-3.6099 2.57851,-6.63044 8.03021,-6.63044 3.46256,0 7.5145,0.44203 10.75605,3.60991 l 6.48311,-6.40943 c -4.49397,-4.34663 -9.72466,-6.11475 -16.94448,-6.11475 -11.34543,0 -18.27056,6.55678 -18.27056,15.91307 0,4.4203 1.25242,7.88287 3.75725,10.31403 2.35749,2.28382 5.52537,3.68358 10.16669,4.34663 l 6.26208,0.95773 c 2.65218,0.36835 3.68359,0.81038 4.71499,1.76812 1.10507,1.10507 1.62077,2.5785 1.62077,4.34662 0,4.19928 -3.24155,6.55678 -9.35629,6.55678 -4.78866,0 -9.28263,-1.10508 -12.59785,-4.4203 l -6.63045,6.63044 c 5.15702,5.23069 11.19809,6.92514 19.15463,6.92514 11.05074,0 19.44931,-5.74639 19.44931,-15.91307 z"
         style="font-style:normal;font-variant:normal;font-weight:bold;font-stretch:normal;font-size:73.67162323px;font-family:DINOT;-inkscape-font-specification:'DINOT Bold'"
         id="path4245"
         inkscape:connector-curvature="0" />
    </g>
  </g>
</svg>
