<?xml version="1.0" encoding="UTF-8" standalone="no"?>
<!-- Created with Inkscape (http://www.inkscape.org/) -->

<svg
   xmlns:dc="http://purl.org/dc/elements/1.1/"
   xmlns:cc="http://creativecommons.org/ns#"
   xmlns:rdf="http://www.w3.org/1999/02/22-rdf-syntax-ns#"
   xmlns:svg="http://www.w3.org/2000/svg"
   xmlns="http://www.w3.org/2000/svg"
   xmlns:sodipodi="http://sodipodi.sourceforge.net/DTD/sodipodi-0.dtd"
   xmlns:inkscape="http://www.inkscape.org/namespaces/inkscape"
   width="200mm"
   height="200mm"
   viewBox="0 0 744.09449 1052.3622"
   id="svg2"
   version="1.1"
   inkscape:version="0.91 r13725"
   sodipodi:docname="pluscommu.svg">
  <defs
     id="defs4" />
  <sodipodi:namedview
     id="base"
     pagecolor="#ffffff"
     bordercolor="#666666"
     borderopacity="1.0"
     inkscape:pageopacity="0.0"
     inkscape:pageshadow="2"
     inkscape:zoom="0.49497475"
     inkscape:cx="32.953129"
     inkscape:cy="408.2248"
     inkscape:document-units="px"
     inkscape:current-layer="layer1"
     showgrid="false"
     showguides="true"
     inkscape:guide-bbox="true"
     inkscape:window-width="1863"
     inkscape:window-height="1056"
     inkscape:window-x="57"
     inkscape:window-y="24"
     inkscape:window-maximized="1" />
  <metadata
     id="metadata7">
    <rdf:RDF>
      <cc:Work
         rdf:about="">
        <dc:format>image/svg+xml</dc:format>
        <dc:type
           rdf:resource="http://purl.org/dc/dcmitype/StillImage" />
        <dc:title></dc:title>
      </cc:Work>
    </rdf:RDF>
  </metadata>
  <g
     inkscape:label="Calque 1"
     inkscape:groupmode="layer"
     id="layer1">
    <rect
       style="fill:#000000;fill-opacity:1;stroke:#000000;stroke-width:4.45499992;stroke-miterlimit:4;stroke-dasharray:none;stroke-opacity:1"
       id="rect4136"
       width="1077.0549"
       height="1086.0554"
       x="-166.13435"
       y="-9.6919451" />
    <circle
       style="fill:none;fill-opacity:1;stroke:#ffffff;stroke-width:2.96999979;stroke-miterlimit:4;stroke-dasharray:none;stroke-opacity:1"
       id="path4140"
       cx="357.39224"
       cy="327.82523"
       r="201.85297" />
    <path
       style="fill:none;fill-rule:evenodd;stroke:#ffffff;stroke-width:7.42499971;stroke-linecap:butt;stroke-linejoin:miter;stroke-miterlimit:4;stroke-dasharray:none;stroke-opacity:1"
       d="m 359.19497,156.13723 0,343.42404"
       id="path4142"
       inkscape:connector-curvature="0" />
    <path
       style="fill:none;fill-rule:evenodd;stroke:#ffffff;stroke-width:7.42499971;stroke-linecap:butt;stroke-linejoin:miter;stroke-miterlimit:4;stroke-dasharray:none;stroke-opacity:1"
       d="m 186.59355,325.08519 343.42403,0"
       id="path4142-0"
       inkscape:connector-curvature="0" />
    <g
       style="font-style:normal;font-weight:normal;font-size:59.39999771px;line-height:125%;font-family:sans-serif;letter-spacing:0px;word-spacing:0px;fill:#000000;fill-opacity:1;stroke:none;stroke-width:1px;stroke-linecap:butt;stroke-linejoin:miter;stroke-opacity:1"
       id="text4205">
      <path
         d="m 151.07485,818.35028 0,-2.8512 -22.4532,0 0,-39.4416 -3.2076,0 0,42.2928 25.6608,0 z"
         style="font-style:normal;font-variant:normal;font-weight:normal;font-stretch:normal;font-family:DINOT;-inkscape-font-specification:DINOT;fill:#ffffff;fill-opacity:1"
         id="path4210" />
      <path
         d="m 161.66383,818.35028 0,-28.6308 -3.0294,0 0,28.6308 3.0294,0 z m 0.3564,-38.5506 0,-3.7422 -3.7422,0 0,3.7422 3.7422,0 z"
         style="font-style:normal;font-variant:normal;font-weight:normal;font-stretch:normal;font-family:DINOT;-inkscape-font-specification:DINOT;fill:#ffffff;fill-opacity:1"
         id="path4212" />
      <path
         d="m 189.23378,794.29328 2.1978,-2.1978 c -2.079,-2.079 -4.0986,-2.7324 -6.8904,-2.7324 -3.3858,0 -6.7122,1.485 -8.3754,4.158 l 0,-3.8016 -3.0294,0 0,28.6308 3.0294,0 0,-17.6418 c 0,-4.5738 2.7324,-8.6724 7.6626,-8.6724 2.376,0 3.6828,0.5346 5.4054,2.2572 z"
         style="font-style:normal;font-variant:normal;font-weight:normal;font-stretch:normal;font-family:DINOT;-inkscape-font-specification:DINOT;fill:#ffffff;fill-opacity:1"
         id="path4214" />
      <path
         d="m 216.90861,804.68828 0,-1.3662 c 0,-8.7912 -4.2768,-13.959 -11.4642,-13.959 -7.1874,0 -11.4642,5.4054 -11.4642,14.6718 0,9.5634 4.2768,14.6718 12.177,14.6718 4.752,0 7.425,-1.485 10.3356,-4.3956 l -2.2572,-1.782 c -2.4354,2.4354 -4.5144,3.4452 -7.9002,3.4452 -6.1182,0 -9.3258,-3.9798 -9.3258,-11.286 l 19.899,0 z m -3.0294,-2.4354 -16.8696,0 c 0.1782,-2.7324 0.2376,-3.6828 1.0098,-5.4054 1.3662,-2.97 4.0986,-4.8114 7.425,-4.8114 3.3264,0 6.1776,1.782 7.425,4.8114 0.7722,1.7226 0.8316,2.673 1.0098,5.4054 z"
         style="font-style:normal;font-variant:normal;font-weight:normal;font-stretch:normal;font-family:DINOT;-inkscape-font-specification:DINOT;fill:#ffffff;fill-opacity:1"
         id="path4216" />
      <path
         d="m 262.18904,810.21248 c 0,-5.5836 -3.6234,-7.0092 -8.3754,-7.4844 l -4.6332,-0.4158 c -4.0392,-0.4158 -5.8212,-1.782 -5.8212,-4.8114 0,-3.564 2.5542,-5.5242 7.3062,-5.5242 3.1482,0 5.8212,0.8316 8.019,2.4354 l 2.0196,-2.0196 c -2.5542,-1.9008 -6.0588,-3.0294 -10.0386,-3.0294 -6.237,0 -10.2762,3.1482 -10.2762,8.1378 0,4.5144 2.8512,7.0092 8.613,7.4844 l 4.752,0.4158 c 3.8016,0.3564 5.4648,1.782 5.4648,4.8114 0,3.861 -2.97,5.8212 -8.613,5.8212 -4.0392,0 -7.1874,-1.188 -9.3852,-3.5046 l -2.079,2.079 c 2.9106,2.7918 6.5934,4.0986 11.583,4.0986 7.0686,0 11.4642,-3.267 11.4642,-8.4942 z"
         style="font-style:normal;font-variant:normal;font-weight:normal;font-stretch:normal;font-family:DINOT;-inkscape-font-specification:DINOT;fill:#ffffff;fill-opacity:1"
         id="path4218" />
      <path
         d="m 292.66959,804.03488 c 0,-4.0986 -0.5346,-8.4942 -3.564,-11.5236 -2.079,-2.079 -4.752,-3.1482 -7.9596,-3.1482 -3.2076,0 -5.8806,1.0692 -7.9596,3.1482 -3.0294,3.0294 -3.564,7.425 -3.564,11.5236 0,4.0986 0.5346,8.4942 3.564,11.5236 2.079,2.079 4.752,3.1482 7.9596,3.1482 3.2076,0 5.8806,-1.0692 7.9596,-3.1482 3.0294,-3.0294 3.564,-7.425 3.564,-11.5236 z m -3.0294,0 c 0,3.3264 -0.1782,7.1874 -2.5542,9.5634 -1.6038,1.6038 -3.6234,2.4354 -5.94,2.4354 -2.3166,0 -4.3362,-0.8316 -5.94,-2.4354 -2.376,-2.376 -2.5542,-6.237 -2.5542,-9.5634 0,-3.3264 0.1782,-7.1874 2.5542,-9.5634 1.6038,-1.6038 3.6234,-2.4354 5.94,-2.4354 2.3166,0 4.3362,0.8316 5.94,2.4354 2.376,2.376 2.5542,6.237 2.5542,9.5634 z"
         style="font-style:normal;font-variant:normal;font-weight:normal;font-stretch:normal;font-family:DINOT;-inkscape-font-specification:DINOT;fill:#ffffff;fill-opacity:1"
         id="path4220" />
      <path
         d="m 324.53119,818.35028 0,-18.2952 c 0,-3.3858 -1.0098,-6.0588 -2.97,-7.9596 -1.9008,-1.8414 -4.455,-2.7324 -7.6032,-2.7324 -3.5046,0 -6.2964,1.2474 -8.4348,3.7422 l 0,-3.3858 -3.0294,0 0,28.6308 3.0294,0 0,-17.7606 c 0,-5.4648 2.9106,-8.5536 8.0784,-8.5536 5.1678,0 7.9002,3.0294 7.9002,8.5536 l 0,17.7606 3.0294,0 z"
         style="font-style:normal;font-variant:normal;font-weight:normal;font-stretch:normal;font-family:DINOT;-inkscape-font-specification:DINOT;fill:#ffffff;fill-opacity:1"
         id="path4222" />
      <path
         d="m 361.0891,818.35028 0,-2.673 -2.079,0 c -3.0294,0 -4.3956,-1.7226 -4.3956,-4.752 l 0,-18.9486 6.4746,0 0,-2.2572 -6.4746,0 0,-9.1476 -3.0294,0 0,9.1476 -3.9204,0 0,2.2572 3.9204,0 0,18.8892 c 0,4.3362 2.376,7.4844 6.8904,7.4844 l 2.6136,0 z"
         style="font-style:normal;font-variant:normal;font-weight:normal;font-stretch:normal;font-family:DINOT;-inkscape-font-specification:DINOT;fill:#ffffff;fill-opacity:1"
         id="path4224" />
      <path
         d="m 391.04806,804.68828 0,-1.3662 c 0,-8.7912 -4.2768,-13.959 -11.4642,-13.959 -7.1874,0 -11.4642,5.4054 -11.4642,14.6718 0,9.5634 4.2768,14.6718 12.177,14.6718 4.752,0 7.425,-1.485 10.3356,-4.3956 l -2.2572,-1.782 c -2.4354,2.4354 -4.5144,3.4452 -7.9002,3.4452 -6.1182,0 -9.3258,-3.9798 -9.3258,-11.286 l 19.899,0 z m -3.0294,-2.4354 -16.8696,0 c 0.1782,-2.7324 0.2376,-3.6828 1.0098,-5.4054 1.3662,-2.97 4.0986,-4.8114 7.425,-4.8114 3.3264,0 6.1776,1.782 7.425,4.8114 0.7722,1.7226 0.8316,2.673 1.0098,5.4054 z m -1.3662,-27.6804 -3.9798,0 -5.7618,8.7318 3.4452,0 6.2964,-8.7318 z"
         style="font-style:normal;font-variant:normal;font-weight:normal;font-stretch:normal;font-family:DINOT;-inkscape-font-specification:DINOT;fill:#ffffff;fill-opacity:1"
         id="path4226" />
      <path
         d="m 441.92043,818.35028 0,-18.2952 c 0,-3.3858 -1.0692,-6.0588 -3.0294,-7.9596 -1.8414,-1.7226 -4.3956,-2.7324 -7.5438,-2.7324 -4.2768,0 -7.6032,1.8414 -9.7416,5.2272 -1.7226,-3.3858 -4.9302,-5.2272 -9.207,-5.2272 -3.5046,0 -6.35579,1.2474 -8.49419,3.7422 l 0,-3.3858 -3.0294,0 0,28.6308 3.0294,0 0,-17.7606 c 0,-5.4648 2.9106,-8.5536 8.07839,-8.5536 5.1678,0 7.9002,3.0294 7.9002,8.5536 l 0,17.7606 3.0294,0 0,-18.2952 c 0,-4.9302 3.0888,-8.019 8.0784,-8.019 5.1678,0 7.9002,3.0294 7.9002,8.5536 l 0,17.7606 3.0294,0 z"
         style="font-style:normal;font-variant:normal;font-weight:normal;font-stretch:normal;font-family:DINOT;-inkscape-font-specification:DINOT;fill:#ffffff;fill-opacity:1"
         id="path4228" />
      <path
         d="m 474.46607,804.03488 c 0,-4.0986 -0.5346,-8.4942 -3.564,-11.5236 -2.079,-2.079 -4.752,-3.1482 -7.9596,-3.1482 -3.2076,0 -5.8806,1.0692 -7.9596,3.1482 -3.0294,3.0294 -3.564,7.425 -3.564,11.5236 0,4.0986 0.5346,8.4942 3.564,11.5236 2.079,2.079 4.752,3.1482 7.9596,3.1482 3.2076,0 5.8806,-1.0692 7.9596,-3.1482 3.0294,-3.0294 3.564,-7.425 3.564,-11.5236 z m -3.0294,0 c 0,3.3264 -0.1782,7.1874 -2.5542,9.5634 -1.6038,1.6038 -3.6234,2.4354 -5.94,2.4354 -2.3166,0 -4.3362,-0.8316 -5.94,-2.4354 -2.376,-2.376 -2.5542,-6.237 -2.5542,-9.5634 0,-3.3264 0.1782,-7.1874 2.5542,-9.5634 1.6038,-1.6038 3.6234,-2.4354 5.94,-2.4354 2.3166,0 4.3362,0.8316 5.94,2.4354 2.376,2.376 2.5542,6.237 2.5542,9.5634 z"
         style="font-style:normal;font-variant:normal;font-weight:normal;font-stretch:normal;font-family:DINOT;-inkscape-font-specification:DINOT;fill:#ffffff;fill-opacity:1"
         id="path4230" />
      <path
         d="m 487.31966,818.35028 0,-28.6308 -3.0294,0 0,28.6308 3.0294,0 z m 0.3564,-38.5506 0,-3.7422 -3.7422,0 0,3.7422 3.7422,0 z"
         style="font-style:normal;font-variant:normal;font-weight:normal;font-stretch:normal;font-family:DINOT;-inkscape-font-specification:DINOT;fill:#ffffff;fill-opacity:1"
         id="path4232" />
      <path
         d="m 519.34461,819.95408 0,-30.2346 -3.0294,0 0,3.6828 c -2.5542,-3.3264 -5.2272,-4.0392 -8.4942,-4.0392 -3.0294,0 -5.5242,1.0098 -7.0092,2.4948 -2.9106,2.9106 -3.6828,7.6626 -3.6828,12.177 0,4.5144 0.7722,9.2664 3.6828,12.177 1.485,1.485 3.9798,2.4948 7.0092,2.4948 3.267,0 5.94,-0.7128 8.4942,-4.0392 l 0,5.1084 c 0,5.7024 -2.673,9.9198 -8.6724,9.9198 -3.6234,0 -5.1678,-1.0692 -7.425,-3.1482 l -2.0196,2.0196 c 2.97,2.673 5.1678,3.8016 9.4446,3.8016 7.425,0 11.7018,-5.2272 11.7018,-12.4146 z m -3.0294,-15.9192 c 0,5.94 -1.0692,11.9988 -8.0784,11.9988 -7.0092,0 -8.0784,-6.0588 -8.0784,-11.9988 0,-5.94 1.0692,-11.9988 8.0784,-11.9988 7.0092,0 8.0784,6.0588 8.0784,11.9988 z"
         style="font-style:normal;font-variant:normal;font-weight:normal;font-stretch:normal;font-family:DINOT;-inkscape-font-specification:DINOT;fill:#ffffff;fill-opacity:1"
         id="path4234" />
      <path
         d="m 552.84993,818.35028 0,-18.2952 c 0,-3.3858 -1.0098,-6.0588 -2.97,-7.9596 -1.9008,-1.8414 -4.455,-2.7324 -7.6032,-2.7324 -3.5046,0 -6.29639,1.2474 -8.43479,3.7422 l 0,-3.3858 -3.0294,0 0,28.6308 3.0294,0 0,-17.7606 c 0,-5.4648 2.9106,-8.5536 8.07839,-8.5536 5.1678,0 7.9002,3.0294 7.9002,8.5536 l 0,17.7606 3.0294,0 z"
         style="font-style:normal;font-variant:normal;font-weight:normal;font-stretch:normal;font-family:DINOT;-inkscape-font-specification:DINOT;fill:#ffffff;fill-opacity:1"
         id="path4236" />
      <path
         d="m 583.83258,818.35028 0,-19.602 c 0,-5.9994 -3.50459,-9.3852 -11.10779,-9.3852 -4.6926,0 -7.6626,1.0098 -10.098,4.3956 l 2.1978,1.9008 c 1.8414,-2.6136 3.861,-3.6234 7.9002,-3.6234 5.8806,0 8.0784,2.4354 8.0784,7.0092 l 0,3.2076 -9.2664,0 c -6.237,0 -9.9792,3.0294 -9.9792,8.2566 0,2.1384 0.7128,4.2174 2.079,5.5836 1.8414,1.9008 4.158,2.6136 8.4348,2.6136 4.0392,0 6.2964,-0.7722 8.7318,-3.2076 l 0,2.8512 3.02939,0 z m -3.02939,-9.9792 c 0,2.6136 -0.5346,4.455 -1.6038,5.4648 -2.079,1.9602 -4.5144,2.1978 -7.128,2.1978 -5.2272,0 -7.4844,-1.782 -7.4844,-5.5836 0,-3.861 2.4354,-5.7618 7.3062,-5.7618 l 8.91,0 0,3.6828 z"
         style="font-style:normal;font-variant:normal;font-weight:normal;font-stretch:normal;font-family:DINOT;-inkscape-font-specification:DINOT;fill:#ffffff;fill-opacity:1"
         id="path4238" />
      <path
         d="m 615.63758,819.95408 0,-30.2346 -3.0294,0 0,3.6828 c -2.5542,-3.3264 -5.2272,-4.0392 -8.4942,-4.0392 -3.0294,0 -5.5242,1.0098 -7.0092,2.4948 -2.9106,2.9106 -3.6828,7.6626 -3.6828,12.177 0,4.5144 0.7722,9.2664 3.6828,12.177 1.485,1.485 3.9798,2.4948 7.0092,2.4948 3.267,0 5.94,-0.7128 8.4942,-4.0392 l 0,5.1084 c 0,5.7024 -2.673,9.9198 -8.6724,9.9198 -3.6234,0 -5.1678,-1.0692 -7.425,-3.1482 l -2.0196,2.0196 c 2.97,2.673 5.1678,3.8016 9.4446,3.8016 7.425,0 11.7018,-5.2272 11.7018,-12.4146 z m -3.0294,-15.9192 c 0,5.94 -1.0692,11.9988 -8.0784,11.9988 -7.0092,0 -8.0784,-6.0588 -8.0784,-11.9988 0,-5.94 1.0692,-11.9988 8.0784,-11.9988 7.0092,0 8.0784,6.0588 8.0784,11.9988 z"
         style="font-style:normal;font-variant:normal;font-weight:normal;font-stretch:normal;font-family:DINOT;-inkscape-font-specification:DINOT;fill:#ffffff;fill-opacity:1"
         id="path4240" />
      <path
         d="m 648.3707,804.68828 0,-1.3662 c 0,-8.7912 -4.2768,-13.959 -11.4642,-13.959 -7.1874,0 -11.4642,5.4054 -11.4642,14.6718 0,9.5634 4.2768,14.6718 12.177,14.6718 4.752,0 7.425,-1.485 10.3356,-4.3956 l -2.2572,-1.782 c -2.4354,2.4354 -4.5144,3.4452 -7.9002,3.4452 -6.1182,0 -9.3258,-3.9798 -9.3258,-11.286 l 19.899,0 z m -3.0294,-2.4354 -16.8696,0 c 0.1782,-2.7324 0.2376,-3.6828 1.0098,-5.4054 1.3662,-2.97 4.0986,-4.8114 7.425,-4.8114 3.3264,0 6.1776,1.782 7.425,4.8114 0.7722,1.7226 0.8316,2.673 1.0098,5.4054 z"
         style="font-style:normal;font-variant:normal;font-weight:normal;font-stretch:normal;font-family:DINOT;-inkscape-font-specification:DINOT;fill:#ffffff;fill-opacity:1"
         id="path4242" />
    </g>
  </g>
</svg>
