<?xml version="1.0" encoding="UTF-8" standalone="no"?>
<!-- Created with Inkscape (http://www.inkscape.org/) -->

<svg
   xmlns:dc="http://purl.org/dc/elements/1.1/"
   xmlns:cc="http://creativecommons.org/ns#"
   xmlns:rdf="http://www.w3.org/1999/02/22-rdf-syntax-ns#"
   xmlns:svg="http://www.w3.org/2000/svg"
   xmlns="http://www.w3.org/2000/svg"
   xmlns:sodipodi="http://sodipodi.sourceforge.net/DTD/sodipodi-0.dtd"
   xmlns:inkscape="http://www.inkscape.org/namespaces/inkscape"
   width="200mm"
   height="200mm"
   viewBox="0 0 744.09449 1052.3622"
   id="svg2"
   version="1.1"
   inkscape:version="0.91 r13725"
   sodipodi:docname="plusalternate.svg">
  <defs
     id="defs4" />
  <sodipodi:namedview
     id="base"
     pagecolor="#ffffff"
     bordercolor="#666666"
     borderopacity="1.0"
     inkscape:pageopacity="0.0"
     inkscape:pageshadow="2"
     inkscape:zoom="0.49497475"
     inkscape:cx="-122.52462"
     inkscape:cy="408.2248"
     inkscape:document-units="px"
     inkscape:current-layer="text4166"
     showgrid="false"
     showguides="true"
     inkscape:guide-bbox="true"
     inkscape:window-width="1863"
     inkscape:window-height="1056"
     inkscape:window-x="57"
     inkscape:window-y="24"
     inkscape:window-maximized="1" />
  <metadata
     id="metadata7">
    <rdf:RDF>
      <cc:Work
         rdf:about="">
        <dc:format>image/svg+xml</dc:format>
        <dc:type
           rdf:resource="http://purl.org/dc/dcmitype/StillImage" />
        <dc:title></dc:title>
      </cc:Work>
    </rdf:RDF>
  </metadata>
  <g
     inkscape:label="Calque 1"
     inkscape:groupmode="layer"
     id="layer1">
    <rect
       style="fill:#e7dbb8;fill-opacity:1;stroke:#000000;stroke-width:4.45499992;stroke-miterlimit:4;stroke-dasharray:none;stroke-opacity:1"
       id="rect4136"
       width="1077.0549"
       height="1086.0554"
       x="-166.13435"
       y="-9.6919451" />
    <g
       id="layer1-8"
       inkscape:label="Calque 1"
       transform="matrix(-0.35355339,0.35355339,-0.35355339,-0.35355339,683.3921,404.39205)">
      <circle
         clip-path="none"
         r="524.28027"
         cy="526.88672"
         cx="373.96588"
         id="path4142"
         style="fill:#3f6e96;fill-opacity:1;stroke:#ece1c8;stroke-width:3.27675176;stroke-opacity:1" />
      <path
         inkscape:connector-curvature="0"
         id="path3340"
         d="M 605.6672,156.16456 744.688,295.18536 512.98669,526.88667 744.68802,758.588 605.66722,897.6088 373.96589,665.90747 142.26456,897.6088 3.2437616,758.588 234.94509,526.88667 3.2437701,295.18535 142.26457,156.16455 373.96589,387.86587 Z"
         style="fill:#ffffff;fill-opacity:1;fill-rule:evenodd;stroke:none;stroke-width:1px;stroke-linecap:butt;stroke-linejoin:miter;stroke-opacity:1" />
    </g>
    <g
       style="font-style:normal;font-weight:normal;font-size:59.39999771px;line-height:125%;font-family:sans-serif;letter-spacing:0px;word-spacing:0px;fill:#4f4c4c;fill-opacity:1;stroke:none;stroke-width:1px;stroke-linecap:butt;stroke-linejoin:miter;stroke-opacity:1"
       id="text4166">
      <path
         d="m 100.33154,817.04953 30.13506,0 0,8.44013 -18.96856,0 0,8.06309 17.83741,0 0,8.44013 -17.83741,0 0,9.91934 19.60664,0 0,8.44014 -30.77314,0 0,-43.30283 z"
         style="font-style:normal;font-variant:normal;font-weight:bold;font-stretch:normal;font-family:'dinot bold';-inkscape-font-specification:'dinot bold,  Bold'"
         id="path4171" />
      <path
         d="m 140.93701,817.04953 12.47168,0 15.74912,29.69999 0,-29.69999 10.58643,0 0,43.30283 -12.47168,0 -15.74912,-29.7 0,29.7 -10.58643,0 0,-43.30283 z"
         style="font-style:normal;font-variant:normal;font-weight:bold;font-stretch:normal;font-family:'dinot bold';-inkscape-font-specification:'dinot bold,  Bold'"
         id="path4173" />
      <path
         d="m 241.49355,818.41271 0,9.16523 q -3.56748,-1.59521 -6.96094,-2.40732 -3.39346,-0.81211 -6.40986,-0.81211 -4.00254,0 -5.9168,1.10215 -1.91426,1.10215 -1.91426,3.42246 0,1.74023 1.27617,2.72637 1.30518,0.95712 4.69864,1.65322 l 4.75664,0.95713 q 7.22197,1.45019 10.26738,4.40859 3.04541,2.9584 3.04541,8.41113 0,7.16397 -4.26358,10.67344 -4.23457,3.48047 -12.96474,3.48047 -4.11856,0 -8.26611,-0.78311 -4.14756,-0.7831 -8.29512,-2.32031 l 0,-9.42627 q 4.14756,2.2043 8.00508,3.33545 3.88652,1.10215 7.483,1.10215 3.6545,0 5.59776,-1.21816 1.94326,-1.21817 1.94326,-3.48047 0,-2.03028 -1.33418,-3.13242 -1.30518,-1.10215 -5.24971,-1.97227 l -4.32158,-0.95713 q -6.49687,-1.39219 -9.51328,-4.4376 -2.9874,-3.04541 -2.9874,-8.2081 0,-6.46787 4.17656,-9.94834 4.17656,-3.48047 12.00762,-3.48047 3.56748,0 7.33799,0.55107 3.7705,0.52207 7.80205,1.59522 z"
         style="font-style:normal;font-variant:normal;font-weight:bold;font-stretch:normal;font-family:'dinot bold';-inkscape-font-specification:'dinot bold,  Bold'"
         id="path4175" />
      <path
         d="m 280.44579,852.46329 -17.46035,0 -2.75537,7.88907 -11.22451,0 16.03916,-43.30283 13.31279,0 16.03916,43.30283 -11.22451,0 -2.72637,-7.88907 z m -14.67597,-8.03408 11.8626,0 -5.9168,-17.22832 -5.9458,17.22832 z"
         style="font-style:normal;font-variant:normal;font-weight:bold;font-stretch:normal;font-family:'dinot bold';-inkscape-font-specification:'dinot bold,  Bold'"
         id="path4177" />
      <path
         d="m 290.8872,817.04953 11.22451,0 11.48555,31.9623 11.45654,-31.9623 11.22451,0 -16.03916,43.30283 -13.31279,0 -16.03916,-43.30283 z"
         style="font-style:normal;font-variant:normal;font-weight:bold;font-stretch:normal;font-family:'dinot bold';-inkscape-font-specification:'dinot bold,  Bold'"
         id="path4179" />
      <path
         d="m 360.7286,824.35851 q -5.10469,0 -7.91807,3.77051 -2.81338,3.77051 -2.81338,10.61543 0,6.81591 2.81338,10.58642 2.81338,3.77051 7.91807,3.77051 5.13369,0 7.94707,-3.77051 2.81338,-3.77051 2.81338,-10.58642 0,-6.84492 -2.81338,-10.61543 -2.81338,-3.77051 -7.94707,-3.77051 z m 0,-8.09209 q 10.4414,0 16.3582,5.9748 5.9168,5.97481 5.9168,16.50323 0,10.49941 -5.9168,16.47421 -5.9168,5.97481 -16.3582,5.97481 -10.4124,0 -16.3582,-5.97481 -5.9168,-5.9748 -5.9168,-16.47421 0,-10.52842 5.9168,-16.50323 5.9458,-5.9748 16.3582,-5.9748 z"
         style="font-style:normal;font-variant:normal;font-weight:bold;font-stretch:normal;font-family:'dinot bold';-inkscape-font-specification:'dinot bold,  Bold'"
         id="path4181" />
      <path
         d="m 391.41473,817.04953 11.16651,0 0,43.30283 -11.16651,0 0,-43.30283 z"
         style="font-style:normal;font-variant:normal;font-weight:bold;font-stretch:normal;font-family:'dinot bold';-inkscape-font-specification:'dinot bold,  Bold'"
         id="path4183" />
      <path
         d="m 429.43886,836.25011 q 3.50948,0 5.01768,-1.30517 1.53721,-1.30518 1.53721,-4.29258 0,-2.9584 -1.53721,-4.23457 -1.5082,-1.27617 -5.01768,-1.27617 l -4.69863,0 0,11.10849 4.69863,0 z m -4.69863,7.71504 0,16.38721 -11.1665,0 0,-43.30283 17.05429,0 q 8.55616,0 12.52969,2.87138 4.00254,2.87139 4.00254,9.07822 0,4.29258 -2.08828,7.04795 -2.05928,2.75537 -6.23584,4.06055 2.29131,0.52207 4.08955,2.37832 1.82725,1.82725 3.6835,5.56875 l 6.06181,12.29766 -11.8916,0 -5.27871,-10.76045 q -1.59521,-3.24844 -3.24844,-4.4376 -1.62422,-1.18916 -4.35058,-1.18916 l -3.16143,0 z"
         style="font-style:normal;font-variant:normal;font-weight:bold;font-stretch:normal;font-family:'dinot bold';-inkscape-font-specification:'dinot bold,  Bold'"
         id="path4185" />
      <path
         d="m 479.93466,817.04953 18.5335,0 q 8.26611,0 12.6747,3.68349 4.4376,3.65449 4.4376,10.44141 0,6.81592 -4.4376,10.49941 -4.40859,3.65449 -12.6747,3.65449 l -7.367,0 0,15.02403 -11.1665,0 0,-43.30283 z m 11.1665,8.09209 0,12.09462 6.17784,0 q 3.24843,0 5.01767,-1.56621 1.76924,-1.59521 1.76924,-4.4956 0,-2.90039 -1.76924,-4.4666 -1.76924,-1.56621 -5.01767,-1.56621 l -6.17784,0 z"
         style="font-style:normal;font-variant:normal;font-weight:bold;font-stretch:normal;font-family:'dinot bold';-inkscape-font-specification:'dinot bold,  Bold'"
         id="path4187" />
      <path
         d="m 523.44052,817.04953 11.1665,0 0,34.86269 19.60664,0 0,8.44014 -30.77314,0 0,-43.30283 z"
         style="font-style:normal;font-variant:normal;font-weight:bold;font-stretch:normal;font-family:'dinot bold';-inkscape-font-specification:'dinot bold,  Bold'"
         id="path4189" />
      <path
         d="m 559.17331,817.04953 11.1665,0 0,25.95849 q 0,5.36572 1.74024,7.68604 1.76923,2.2913 5.74277,2.2913 4.00254,0 5.74277,-2.2913 1.76924,-2.32032 1.76924,-7.68604 l 0,-25.95849 11.1665,0 0,25.95849 q 0,9.19424 -4.61162,13.68984 -4.61162,4.49561 -14.06689,4.49561 -9.42627,0 -14.03789,-4.49561 -4.61162,-4.4956 -4.61162,-13.68984 l 0,-25.95849 z"
         style="font-style:normal;font-variant:normal;font-weight:bold;font-stretch:normal;font-family:'dinot bold';-inkscape-font-specification:'dinot bold,  Bold'"
         id="path4191" />
      <path
         d="m 637.57088,818.41271 0,9.16523 q -3.56748,-1.59521 -6.96094,-2.40732 -3.39346,-0.81211 -6.40986,-0.81211 -4.00254,0 -5.9168,1.10215 -1.91426,1.10215 -1.91426,3.42246 0,1.74023 1.27617,2.72637 1.30518,0.95712 4.69864,1.65322 l 4.75664,0.95713 q 7.22197,1.45019 10.26738,4.40859 3.04541,2.9584 3.04541,8.41113 0,7.16397 -4.26357,10.67344 -4.23457,3.48047 -12.96475,3.48047 -4.11855,0 -8.26611,-0.78311 -4.14756,-0.7831 -8.29512,-2.32031 l 0,-9.42627 q 4.14756,2.2043 8.00508,3.33545 3.88652,1.10215 7.48301,1.10215 3.65449,0 5.59775,-1.21816 1.94326,-1.21817 1.94326,-3.48047 0,-2.03028 -1.33418,-3.13242 -1.30517,-1.10215 -5.24971,-1.97227 l -4.32158,-0.95713 q -6.49687,-1.39219 -9.51328,-4.4376 -2.9874,-3.04541 -2.9874,-8.2081 0,-6.46787 4.17656,-9.94834 4.17656,-3.48047 12.00762,-3.48047 3.56748,0 7.33799,0.55107 3.7705,0.52207 7.80205,1.59522 z"
         style="font-style:normal;font-variant:normal;font-weight:bold;font-stretch:normal;font-family:'dinot bold';-inkscape-font-specification:'dinot bold,  Bold'"
         id="path4193" />
    </g>
  </g>
</svg>
